<svg width="60" height="40" viewBox="0 0 60 40" fill="none" xmlns="http://www.w3.org/2000/svg">
<path fill-rule="evenodd" clip-rule="evenodd" d="M23.9934 26.3123L26.0432 13.6216H29.3198L27.2702 26.3123H23.9934Z" fill="#26337A"/>
<path fill-rule="evenodd" clip-rule="evenodd" d="M39.1553 13.9328C38.5074 13.6781 37.4885 13.4004 36.2192 13.4004C32.9797 13.4004 30.6994 15.1226 30.6805 17.5886C30.6599 19.4128 32.3077 20.4301 33.55 21.0364C34.8268 21.6579 35.2558 22.0556 35.2507 22.6113C35.2419 23.4612 34.2316 23.8507 33.2895 23.8507C31.9777 23.8507 31.2807 23.6589 30.2032 23.1851L29.7817 22.9831L29.3235 25.8238C30.0875 26.1773 31.5039 26.4841 32.9739 26.5002C36.4167 26.5002 38.6538 24.7988 38.68 22.1654C38.6918 20.7189 37.8187 19.6225 35.9278 18.7173C34.7828 18.1288 34.08 17.7389 34.088 17.1433C34.0888 16.6159 34.6817 16.0512 35.9651 16.0512C37.0368 16.034 37.8127 16.281 38.4173 16.5389L38.7115 16.684L39.1553 13.9328Z" fill="#26337A"/>
<path fill-rule="evenodd" clip-rule="evenodd" d="M43.5183 21.8127C43.7898 21.0832 44.8236 18.2654 44.8236 18.2654C44.8044 18.2989 45.0936 17.5303 45.2591 17.0547L45.4802 18.1492C45.4802 18.1492 46.109 21.1783 46.2385 21.8127C45.7283 21.8127 44.1581 21.8127 43.5183 21.8127ZM47.5606 13.6343H45.0284C44.243 13.6343 43.6551 13.8588 43.311 14.6863L38.4451 26.3165H41.8866C41.8866 26.3165 42.448 24.7519 42.5755 24.4086C42.9508 24.4086 46.2949 24.4152 46.7722 24.4152C46.8704 24.858 47.1712 26.3165 47.1712 26.3165H50.2124L47.5606 13.6343Z" fill="#26337A"/>
<path fill-rule="evenodd" clip-rule="evenodd" d="M21.2445 13.6318L18.0375 22.2838L17.694 20.5251C17.0963 18.4987 15.236 16.3024 13.155 15.2018L16.089 26.3008L19.5567 26.2987L24.7167 13.6318H21.2445Z" fill="#26337A"/>
<path fill-rule="evenodd" clip-rule="evenodd" d="M15.0604 13.6235H9.77651L9.73303 13.8865C13.8445 14.9377 16.5648 17.4752 17.694 20.5254L16.5457 14.6943C16.3476 13.89 15.7719 13.6516 15.0604 13.6235Z" fill="#EC982D"/>
</svg>
