<svg width="60" height="40" viewBox="0 0 60 40" fill="none" xmlns="http://www.w3.org/2000/svg">
<path fill-rule="evenodd" clip-rule="evenodd" d="M33.6546 19.7877C33.6546 26.3069 28.3597 31.5911 21.8276 31.5911C15.2953 31.5911 10 26.3069 10 19.7877C10 13.2686 15.2953 7.98389 21.8276 7.98389C28.3597 7.98389 33.6546 13.2686 33.6546 19.7877Z" fill="#CC0000"/>
<path fill-rule="evenodd" clip-rule="evenodd" d="M37.7065 7.98389C34.6498 7.98389 31.8656 9.14097 29.7662 11.0392C29.3391 11.426 28.9404 11.8439 28.5724 12.2888H30.962C31.2884 12.6853 31.5891 13.1022 31.8637 13.5389H27.6706C27.4197 13.9402 27.1917 14.3571 26.9891 14.7891H32.5448C32.7347 15.1937 32.9018 15.6104 33.0457 16.0387H26.4882C26.3517 16.4457 26.2366 16.8628 26.1447 17.2881H33.3889C33.5623 18.0939 33.6546 18.93 33.6546 19.7877C33.6546 21.0981 33.4406 22.3594 33.0457 23.5374H26.4882C26.6321 23.9653 26.7992 24.3826 26.9887 24.7878H32.5448C32.3418 25.2187 32.1149 25.636 31.8626 26.0377H27.6706C27.944 26.4731 28.2453 26.8906 28.5724 27.2866H30.9613C30.594 27.7319 30.195 28.1497 29.7666 28.5366C31.8657 30.4348 34.6498 31.5911 37.7065 31.5911C44.2384 31.5911 49.5335 26.3069 49.5335 19.7877C49.5335 13.2692 44.2384 7.98389 37.7065 7.98389Z" fill="#FF9900"/>
<path fill-rule="evenodd" clip-rule="evenodd" d="M19.0657 21.0798C18.9309 21.0645 18.8715 21.0596 18.779 21.0596C18.0511 21.0596 17.6831 21.3088 17.6831 21.8011C17.6831 22.1042 17.8627 22.2969 18.1431 22.2969C18.6662 22.2969 19.0432 21.8 19.0657 21.0798ZM19.9997 23.2494C19.8284 23.2494 18.9354 23.2494 18.9354 23.2494L18.9599 22.7448C18.6354 23.1432 18.2023 23.3335 17.6141 23.3335C16.9185 23.3335 16.4413 22.7914 16.4413 22.0037C16.4413 20.8179 17.271 20.1264 18.6954 20.1264C18.8414 20.1264 19.0279 20.1398 19.2189 20.1639C19.2586 20.0031 19.269 19.9348 19.269 19.8481C19.269 19.5258 19.0455 19.4049 18.4457 19.4049C17.8175 19.3985 17.2994 19.5547 17.0865 19.6244C17.1 19.5435 17.2646 18.5293 17.2646 18.5293C17.9042 18.3416 18.3263 18.2715 18.8012 18.2715C19.904 18.2715 20.488 18.7654 20.4867 19.6992C20.489 19.9497 20.4473 20.2577 20.3828 20.664C20.2714 21.3691 20.0322 22.8813 19.9997 23.2494Z" fill="#000066"/>
<path fill-rule="evenodd" clip-rule="evenodd" d="M15.9038 23.2494H14.6196L15.3556 18.6472L13.7129 23.2494H12.838L12.7298 18.673L11.9567 23.2494H10.7549L11.7588 17.2622H13.6052L13.7168 20.6135L14.8433 17.2622H16.8969L15.9038 23.2494Z" fill="#000066"/>
<path fill-rule="evenodd" clip-rule="evenodd" d="M39.2929 21.0798C39.1582 21.0645 39.0995 21.0596 39.0072 21.0596C38.2788 21.0596 37.9111 21.3088 37.9111 21.8011C37.9111 22.1042 38.09 22.2969 38.3711 22.2969C38.8939 22.2969 39.2711 21.8 39.2929 21.0798ZM40.2275 23.2494C40.0559 23.2494 39.1636 23.2494 39.1636 23.2494L39.1877 22.7448C38.8632 23.1432 38.4304 23.3335 37.8425 23.3335C37.1459 23.3335 36.6693 22.7914 36.6693 22.0037C36.6693 20.8179 37.4994 20.1264 38.9234 20.1264C39.0692 20.1264 39.2554 20.1398 39.4466 20.1639C39.4864 20.0031 39.4967 19.9348 39.4967 19.8481C39.4967 19.5258 39.2731 19.4049 38.6733 19.4049C38.0451 19.3985 37.5272 19.5547 37.3136 19.6244C37.3278 19.5435 37.4928 18.5293 37.4928 18.5293C38.1321 18.3416 38.5545 18.2715 39.0287 18.2715C40.1322 18.2715 40.7155 18.7654 40.7144 19.6992C40.7166 19.9497 40.6753 20.2577 40.6105 20.664C40.4994 21.3691 40.2596 22.8813 40.2275 23.2494Z" fill="#000066"/>
<path fill-rule="evenodd" clip-rule="evenodd" d="M25.706 23.1756C25.3544 23.2861 25.0806 23.3338 24.7834 23.3338C24.1272 23.3338 23.7689 22.9574 23.7689 22.264C23.7597 22.0488 23.8633 21.4826 23.9448 20.9663C24.0191 20.5114 24.5017 17.6436 24.5017 17.6436H25.7778L25.6288 18.3806H26.3998L26.2258 19.5509H25.4522C25.304 20.4767 25.0926 21.6302 25.0901 21.7832C25.0901 22.0342 25.2243 22.1439 25.5299 22.1439C25.6763 22.1439 25.7895 22.129 25.8761 22.098L25.706 23.1756Z" fill="#000066"/>
<path fill-rule="evenodd" clip-rule="evenodd" d="M29.6191 23.136C29.1806 23.2697 28.758 23.335 28.3096 23.3335C26.8807 23.3316 26.1359 22.5874 26.1359 21.1613C26.1359 19.497 27.0833 18.2715 28.3698 18.2715C29.4219 18.2715 30.0942 18.9576 30.0942 20.0331C30.0942 20.3907 30.0482 20.7392 29.9367 21.2309H27.3951C27.3093 21.9373 27.762 22.2315 28.5049 22.2315C28.9612 22.2315 29.3735 22.1374 29.8316 21.9253L29.6191 23.136ZM28.9017 20.2495C28.909 20.1478 29.0369 19.3803 28.3074 19.3803C27.9014 19.3803 27.6104 19.6895 27.4924 20.2495H28.9017Z" fill="#000066"/>
<path fill-rule="evenodd" clip-rule="evenodd" d="M20.7697 19.9197C20.7697 20.5351 21.0688 20.9598 21.7473 21.279C22.267 21.5232 22.348 21.5954 22.348 21.8164C22.348 22.1195 22.1185 22.2572 21.6106 22.2572C21.2273 22.2572 20.871 22.1971 20.46 22.0645C20.46 22.0645 20.2916 23.1382 20.2836 23.1895C20.5753 23.2525 20.8355 23.3113 21.6198 23.3335C22.9745 23.3335 23.6003 22.8187 23.6003 21.706C23.6003 21.0371 23.3386 20.6444 22.6953 20.3489C22.1571 20.1025 22.0949 20.0473 22.0949 19.8201C22.0949 19.5569 22.3085 19.4224 22.7233 19.4224C22.9754 19.4224 23.3195 19.4493 23.6461 19.4953L23.8287 18.3661C23.4963 18.3133 22.9921 18.2715 22.6986 18.2715C21.2624 18.2715 20.765 19.0201 20.7697 19.9197Z" fill="#000066"/>
<path fill-rule="evenodd" clip-rule="evenodd" d="M35.8639 18.4004C36.2205 18.4004 36.5536 18.493 37.0113 18.7237L37.2216 17.4243C37.0328 17.3504 36.371 16.9175 35.8103 16.9175C34.9512 16.9175 34.2242 17.3435 33.7137 18.0451C32.9683 17.7989 32.6616 18.2965 32.2863 18.7927L31.9527 18.8703C31.9779 18.7071 32.0009 18.545 31.9936 18.3807H30.8138C30.6531 19.8881 30.3677 21.4143 30.1443 22.9223L30.0858 23.2498H31.3704C31.5848 21.8594 31.702 20.9694 31.7734 20.3665L32.2571 20.099C32.3298 19.8302 32.5554 19.74 33.0093 19.751C32.95 20.0684 32.9179 20.4029 32.9179 20.7489C32.9179 22.3421 33.7803 23.3339 35.1619 23.3339C35.5179 23.3339 35.8237 23.2873 36.2972 23.1586L36.5222 21.7943C36.0964 22.003 35.7478 22.1013 35.4318 22.1013C34.6853 22.1013 34.2335 21.5512 34.2335 20.6426C34.2335 19.324 34.9049 18.4004 35.8639 18.4004Z" fill="#000066"/>
<path fill-rule="evenodd" clip-rule="evenodd" d="M46.7349 17.2622L46.4494 18.992C46.099 18.531 45.7218 18.1971 45.2239 18.1971C44.5761 18.1971 43.9864 18.6873 43.6002 19.4092C43.0625 19.2979 42.5068 19.1085 42.5068 19.1085L42.5064 19.1132C42.5492 18.7097 42.5674 18.4642 42.5631 18.3803H41.3835C41.2233 19.8877 40.9375 21.4139 40.7143 22.9219L40.6553 23.2494H41.9403C42.1137 22.1258 42.2462 21.1916 42.344 20.4518C42.7832 20.0556 43.003 19.711 43.4458 19.7334C43.2494 20.2076 43.1348 20.7534 43.1348 21.3134C43.1348 22.5302 43.7512 23.3336 44.685 23.3336C45.1557 23.3336 45.5168 23.1715 45.8689 22.7962L45.8083 23.2491H47.0233L48.0014 17.2622H46.7349ZM45.1291 22.1246C44.6921 22.1246 44.4708 21.8012 44.4708 21.1647C44.4708 20.2076 44.8845 19.5292 45.4667 19.5292C45.908 19.5292 46.1472 19.8642 46.1472 20.4827C46.1472 21.4481 45.7267 22.1246 45.1291 22.1246Z" fill="#000066"/>
<path fill-rule="evenodd" clip-rule="evenodd" d="M16.2732 22.8944H14.9893L15.7252 18.2922L14.0828 22.8944H13.2075L13.0995 18.3189L12.3262 22.8944H11.1244L12.1283 16.9077H13.9747L14.0263 20.6138L15.2723 16.9077H17.2664L16.2732 22.8944Z" fill="white"/>
<path fill-rule="evenodd" clip-rule="evenodd" d="M19.4351 20.7255C19.3005 20.7099 19.2411 20.7056 19.1486 20.7056C18.4208 20.7056 18.0525 20.9544 18.0525 21.4463C18.0525 21.7491 18.2324 21.9429 18.5129 21.9429C19.0359 21.9429 19.4129 21.4459 19.4351 20.7255ZM20.3689 22.8944C20.1979 22.8944 19.3052 22.8944 19.3052 22.8944L19.3295 22.3902C19.005 22.7884 18.572 22.9789 17.9838 22.9789C17.2879 22.9789 16.8109 22.4361 16.8109 21.6485C16.8109 20.4625 17.6408 19.772 19.0652 19.772C19.2108 19.772 19.3974 19.7852 19.5886 19.8098C19.6282 19.6487 19.6387 19.5802 19.6387 19.4931C19.6387 19.171 19.4151 19.051 18.8153 19.051C18.1869 19.0436 17.669 19.1997 17.4559 19.2693C17.4696 19.1887 17.6341 18.1745 17.6341 18.1745C18.2738 17.9872 18.6959 17.9165 19.1708 17.9165C20.2734 17.9165 20.8573 18.411 20.8564 19.3444C20.8584 19.5946 20.8171 19.904 20.7524 20.3092C20.6409 21.0137 20.4016 22.5269 20.3689 22.8944Z" fill="white"/>
<path fill-rule="evenodd" clip-rule="evenodd" d="M37.5909 17.0688L37.3807 18.368C36.9222 18.138 36.59 18.0449 36.2338 18.0449C35.2751 18.0449 34.6026 18.9696 34.6026 20.2884C34.6026 21.197 35.0546 21.746 35.8011 21.746C36.1173 21.746 36.4667 21.6484 36.8915 21.4389L36.6659 22.8032C36.1932 22.9318 35.8872 22.9788 35.5314 22.9788C34.1488 22.9788 33.2877 21.9868 33.2877 20.394C33.2877 18.2536 34.4781 16.7578 36.1798 16.7578C36.7405 16.7578 37.4027 16.9949 37.5909 17.0688Z" fill="white"/>
<path fill-rule="evenodd" clip-rule="evenodd" d="M39.6622 20.7255C39.5284 20.7099 39.4688 20.7056 39.3764 20.7056C38.649 20.7056 38.2806 20.9544 38.2806 21.4463C38.2806 21.7491 38.4602 21.9429 38.7406 21.9429C39.2633 21.9429 39.6407 21.4459 39.6622 20.7255ZM40.5967 22.8944C40.4259 22.8944 39.5331 22.8944 39.5331 22.8944L39.5572 22.3902C39.2327 22.7884 38.7996 22.9789 38.212 22.9789C37.5154 22.9789 37.0389 22.4361 37.0389 21.6485C37.0389 20.4625 37.8681 19.772 39.2929 19.772C39.4385 19.772 39.6246 19.7852 39.8157 19.8098C39.8555 19.6487 39.8659 19.5802 39.8659 19.4931C39.8659 19.171 39.643 19.051 39.0428 19.051C38.415 19.0436 37.8972 19.1997 37.6838 19.2693C37.6972 19.1887 37.8619 18.1745 37.8619 18.1745C38.5017 17.9872 38.9234 17.9165 39.3983 17.9165C40.5009 17.9165 41.0853 18.411 41.0838 19.3444C41.0865 19.5946 41.0448 19.904 40.9801 20.3092C40.8689 21.0137 40.6296 22.5269 40.5967 22.8944Z" fill="white"/>
<path fill-rule="evenodd" clip-rule="evenodd" d="M26.0752 22.8203C25.724 22.9307 25.4498 22.9787 25.153 22.9787C24.4966 22.9787 24.1381 22.602 24.1381 21.9094C24.1291 21.6934 24.2329 21.1282 24.3146 20.6113C24.3884 20.156 24.8712 17.2886 24.8712 17.2886H26.1476L25.9982 18.0254H26.6535L26.479 19.1953H25.8216C25.6734 20.1221 25.462 21.2748 25.4594 21.4278C25.4594 21.6796 25.5941 21.7886 25.8994 21.7886C26.0457 21.7886 26.1588 21.7742 26.2457 21.7425L26.0752 22.8203Z" fill="white"/>
<path fill-rule="evenodd" clip-rule="evenodd" d="M29.9892 22.7819C29.5505 22.916 29.1269 22.9793 28.6791 22.9789C27.25 22.978 26.5057 22.2328 26.5057 20.8069C26.5057 19.142 27.453 17.9165 28.7385 17.9165C29.7918 17.9165 30.4637 18.6026 30.4637 19.6795C30.4637 20.0363 30.417 20.3846 30.3067 20.8765H27.7648C27.6786 21.5829 28.1318 21.8776 28.8741 21.8776C29.3307 21.8776 29.7428 21.7832 30.2015 21.5706L29.9892 22.7819ZM29.2716 19.8945C29.2785 19.7927 29.4069 19.0255 28.6776 19.0255C28.2713 19.0255 27.9803 19.3353 27.8619 19.8945H29.2716Z" fill="white"/>
<path fill-rule="evenodd" clip-rule="evenodd" d="M21.139 19.5647C21.139 20.1812 21.4384 20.605 22.1171 20.9246C22.6369 21.1686 22.7174 21.2408 22.7174 21.462C22.7174 21.7655 22.4881 21.9024 21.9799 21.9024C21.5969 21.9024 21.2405 21.8431 20.8293 21.7108C20.8293 21.7108 20.661 22.7838 20.6532 22.8343C20.9448 22.8981 21.2051 22.9563 21.989 22.9789C23.3441 22.9789 23.9699 22.4642 23.9699 21.3516C23.9699 20.6823 23.7078 20.2898 23.0647 19.9951C22.5264 19.7479 22.4645 19.6933 22.4645 19.4657C22.4645 19.2025 22.678 19.0671 23.0931 19.0671C23.3447 19.0671 23.6892 19.095 24.0155 19.1409L24.1983 18.0118C23.8658 17.9594 23.3619 17.9165 23.0682 17.9165C21.6317 17.9165 21.1347 18.6653 21.139 19.5647Z" fill="white"/>
<path fill-rule="evenodd" clip-rule="evenodd" d="M47.3928 22.8944H46.1783L46.2384 22.4413C45.8861 22.8168 45.5252 22.9789 45.0546 22.9789C44.1215 22.9789 43.5042 22.1764 43.5042 20.9583C43.5042 19.3388 44.4613 17.9738 45.5934 17.9738C46.0913 17.9738 46.4683 18.1767 46.8195 18.6378L47.1044 16.9077H48.3707L47.3928 22.8944ZM45.4985 21.7694C46.0968 21.7694 46.5166 21.0932 46.5166 20.1288C46.5166 19.5101 46.2775 19.1739 45.8362 19.1739C45.2538 19.1739 44.8404 19.8526 44.8404 20.81C44.8404 21.4472 45.0618 21.7694 45.4985 21.7694Z" fill="white"/>
<path fill-rule="evenodd" clip-rule="evenodd" d="M41.7534 18.0254C41.5928 19.5324 41.3072 21.0587 41.0839 22.5668L41.0254 22.8942H42.3096C42.7691 19.9167 42.8795 19.3356 43.6002 19.4082C43.7148 18.7988 43.9285 18.2651 44.0875 17.9961C43.5498 17.8842 43.2494 18.1875 42.8558 18.7639C42.8872 18.5145 42.9438 18.2726 42.9332 18.0254H41.7534Z" fill="white"/>
<path fill-rule="evenodd" clip-rule="evenodd" d="M31.1839 18.0254C31.0226 19.5324 30.7366 21.0587 30.5136 22.5668L30.4553 22.8942H31.7399C32.1996 19.9167 32.3096 19.3356 33.0292 19.4082C33.1446 18.7988 33.3586 18.2651 33.5173 17.9961C32.9801 17.8842 32.6792 18.1875 32.2863 18.7639C32.3173 18.5145 32.3743 18.2726 32.3631 18.0254H31.1839Z" fill="white"/>
</svg>
