<svg width="60" height="40" viewBox="0 0 60 40" fill="none" xmlns="http://www.w3.org/2000/svg">
<path fill-rule="evenodd" clip-rule="evenodd" d="M37.162 20.408H37.1804H37.2161H37.2517H37.2874H37.323H37.3587H37.3943H37.43H37.4656H37.5013H37.5369H37.5726H37.6082H37.6439H37.6795H37.7152H37.7508H37.7865H37.8221H37.8577H37.8934H37.9291H37.9647H38.0004H38.036H38.0716H38.1073H38.1429H38.1786H38.2143H38.2499H38.2856H38.3212H38.3568H38.3925H38.4281H38.4638H38.4995H38.5351H38.5707H38.6064H38.642H38.6777H38.7133H38.749H38.7846H38.8203H38.8559H38.8916H38.9272H38.9629H38.9985H39.0342H39.0698H39.1055H39.1411H39.1768H39.2124H39.2481H39.2837H39.3134L39.3194 20.4081C39.3304 20.4084 39.3424 20.4089 39.355 20.4096C39.3665 20.4102 39.3784 20.411 39.3907 20.4119C39.4024 20.4128 39.4144 20.4138 39.4263 20.4149C39.4383 20.4159 39.4503 20.4172 39.462 20.4185C39.4742 20.4198 39.4862 20.4213 39.4976 20.4228C39.5104 20.4245 39.5224 20.4263 39.5333 20.4281C39.5411 20.4295 39.5483 20.4308 39.5548 20.4322L39.5689 20.4354C39.5809 20.4382 39.5927 20.4412 39.6046 20.4444C39.6165 20.4477 39.6284 20.4512 39.6402 20.455C39.6522 20.4588 39.6641 20.4628 39.6759 20.4671C39.6878 20.4714 39.6997 20.476 39.7115 20.4808C39.7235 20.4857 39.7354 20.4909 39.7472 20.4963C39.7592 20.5017 39.771 20.5074 39.7828 20.5134C39.7948 20.5195 39.8067 20.5259 39.8184 20.5325C39.8305 20.5392 39.8424 20.5463 39.8541 20.5536C39.8661 20.5611 39.8781 20.5688 39.8898 20.5768C39.9018 20.5851 39.9137 20.5935 39.9254 20.6023C39.9375 20.6114 39.9494 20.6209 39.9611 20.6306C39.9732 20.6406 39.9851 20.6511 39.9967 20.6617C40.0089 20.6729 40.0208 20.6843 40.0324 20.6961C40.0446 20.7085 40.0565 20.7214 40.068 20.7345C40.0803 20.7484 40.0922 20.7628 40.1036 20.7775C40.116 20.7933 40.1279 20.8096 40.1393 20.8263C40.1518 20.8446 40.1637 20.8633 40.175 20.8826C40.1877 20.9043 40.1995 20.9266 40.2106 20.9496C40.2237 20.9768 40.2357 21.0048 40.2463 21.0336C40.2605 21.0723 40.2725 21.1125 40.2819 21.1539C40.2982 21.2257 40.307 21.3014 40.307 21.3803C40.307 21.4597 40.2982 21.5357 40.2819 21.6077C40.2725 21.6493 40.2605 21.6895 40.2463 21.7283C40.2356 21.7572 40.2237 21.7853 40.2106 21.8126C40.1995 21.8355 40.1877 21.8579 40.175 21.8796C40.1637 21.8989 40.1518 21.9177 40.1393 21.9359C40.1279 21.9526 40.116 21.9689 40.1036 21.9848C40.0922 21.9995 40.0803 22.0138 40.068 22.0277C40.0565 22.0409 40.0446 22.0537 40.0324 22.0661C40.0208 22.0779 40.0088 22.0893 39.9967 22.1004C39.9851 22.1111 39.9732 22.1214 39.9611 22.1315C39.9494 22.1411 39.9375 22.1505 39.9254 22.1596C39.9137 22.1684 39.9018 22.1768 39.8898 22.1851C39.8781 22.1931 39.8661 22.2008 39.8541 22.2082C39.8424 22.2154 39.8305 22.2225 39.8184 22.2292C39.8067 22.2358 39.7948 22.2421 39.7828 22.2481C39.771 22.2541 39.7592 22.2597 39.7472 22.2652C39.7354 22.2705 39.7235 22.2756 39.7115 22.2805C39.6997 22.2852 39.6878 22.2898 39.6759 22.2941C39.6641 22.2983 39.6522 22.3023 39.6402 22.306C39.6284 22.3097 39.6165 22.3132 39.6046 22.3164C39.5927 22.3196 39.5809 22.3226 39.5689 22.3253L39.5548 22.3285C39.5483 22.33 39.5411 22.3314 39.5333 22.3328C39.5224 22.3347 39.5104 22.3365 39.4976 22.3383C39.4862 22.3398 39.4742 22.3413 39.462 22.3426C39.4503 22.3439 39.4383 22.3451 39.4263 22.3462C39.4144 22.3473 39.4024 22.3483 39.3907 22.3491C39.3784 22.35 39.3665 22.3507 39.355 22.3513C39.3424 22.352 39.3304 22.3524 39.3194 22.3527L39.3003 22.3529H39.2837H39.2481H39.2124H39.1768H39.1411H39.1055H39.0698H39.0342H38.9985H38.9629H38.9272H38.8916H38.8559H38.8203H38.7846H38.749H38.7133H38.6777H38.642H38.6064H38.5707H38.5351H38.4995H38.4638H38.4281H38.3925H38.3568H38.3212H38.2856H38.2499H38.2143H38.1786H38.1429H38.1073H38.0716H38.036H38.0004H37.9647H37.9291H37.8934H37.8577H37.8221H37.7865H37.7508H37.7152H37.6795H37.6439H37.6082H37.5726H37.5369H37.5013H37.4656H37.43H37.3943H37.3587H37.323H37.2874H37.2517H37.2161H37.1804H37.162V20.408ZM40.0325 18.2067C40.0468 18.272 40.0545 18.3411 40.0545 18.4139C40.0545 18.4866 40.0468 18.5557 40.0325 18.621C40.0233 18.6629 40.0113 18.7032 39.9968 18.7418C39.9862 18.77 39.9743 18.7973 39.9612 18.8236C39.9502 18.8457 39.9382 18.8672 39.9255 18.8879C39.9143 18.9062 39.9023 18.924 39.8899 18.9413C39.8785 18.9571 39.8666 18.9724 39.8542 18.9872C39.8427 19.001 39.8309 19.0144 39.8186 19.0274C39.807 19.0396 39.7952 19.0514 39.783 19.0629C39.7713 19.0738 39.7595 19.0844 39.7473 19.0946C39.7356 19.1044 39.7238 19.1139 39.7116 19.1231C39.7 19.1319 39.6881 19.1404 39.676 19.1487C39.6643 19.1567 39.6524 19.1643 39.6403 19.1717C39.6286 19.1789 39.6167 19.1858 39.6047 19.1925C39.593 19.199 39.5811 19.2052 39.5691 19.2112C39.5573 19.217 39.5454 19.2226 39.5334 19.2279C39.5216 19.2332 39.5098 19.2381 39.4978 19.2428C39.486 19.2475 39.4741 19.2519 39.4621 19.256C39.4503 19.2601 39.4384 19.264 39.4265 19.2676C39.4147 19.2711 39.4028 19.2745 39.3908 19.2776C39.379 19.2807 39.3671 19.2835 39.3552 19.2861C39.3434 19.2887 39.3315 19.291 39.3195 19.2931L39.3109 19.2947C39.3039 19.2959 39.2947 19.2972 39.2839 19.2986C39.2733 19.2999 39.2613 19.3013 39.2482 19.3026C39.2369 19.3038 39.2249 19.3049 39.2126 19.3059C39.2009 19.3069 39.1889 19.3077 39.1769 19.3085C39.1649 19.3093 39.153 19.3099 39.1413 19.3104C39.1289 19.3109 39.1169 19.3112 39.1056 19.3113L39.1 19.3113H39.07H39.0343H38.9987H38.9631H38.9274H38.8917H38.8561H38.8205H38.7848H38.7492H38.7135H38.6779H38.6422H38.6066H38.5709H38.5353H38.4996H38.464H38.4283H38.3927H38.357H38.3214H38.2857H38.2501H38.2144H38.1788H38.1432H38.1075H38.0718H38.0362H38.0006H37.9649H37.9293H37.8936H37.858H37.8223H37.7867H37.751H37.7154H37.6797H37.6441H37.6084H37.5728H37.5371H37.5015H37.4658H37.4302H37.3946H37.3589H37.3232H37.2876H37.2519H37.2163H37.1807H37.162V17.5165H37.1807H37.2163H37.2519H37.2876H37.3232H37.3589H37.3946H37.4302H37.4658H37.5015H37.5371H37.5728H37.6084H37.6441H37.6797H37.7154H37.751H37.7867H37.8223H37.858H37.8936H37.9293H37.9649H38.0006H38.0362H38.0718H38.1075H38.1432H38.1788H38.2144H38.2501H38.2857H38.3214H38.357H38.3927H38.4283H38.464H38.4996H38.5353H38.5709H38.6066H38.6422H38.6779H38.7135H38.7492H38.7848H38.8205H38.8561H38.8917H38.9274H38.9631H38.9987H39.0343H39.07H39.1056H39.1207L39.1413 17.5172C39.153 17.5176 39.1649 17.5184 39.1769 17.5191C39.1889 17.5199 39.2009 17.5208 39.2126 17.5217C39.2249 17.5227 39.2369 17.5238 39.2482 17.5249C39.2613 17.5262 39.2733 17.5275 39.2839 17.5287C39.2947 17.5299 39.3039 17.5311 39.3109 17.5321L39.3195 17.5336C39.3315 17.5358 39.3434 17.5382 39.3552 17.5408C39.3671 17.5434 39.379 17.5463 39.3908 17.5494C39.4028 17.5525 39.4147 17.5559 39.4265 17.5595C39.4384 17.5631 39.4503 17.567 39.4621 17.5711C39.4741 17.5753 39.486 17.5797 39.4978 17.5844C39.5098 17.5891 39.5216 17.5941 39.5334 17.5994C39.5454 17.6047 39.5573 17.6103 39.5691 17.6161C39.5811 17.6221 39.593 17.6284 39.6047 17.6348C39.6167 17.6415 39.6286 17.6485 39.6403 17.6557C39.6524 17.6631 39.6643 17.6707 39.676 17.6787C39.6881 17.687 39.7 17.6956 39.7116 17.7044C39.7238 17.7136 39.7356 17.7231 39.7473 17.7329C39.7595 17.7431 39.7713 17.7537 39.783 17.7646C39.7952 17.7761 39.807 17.7879 39.8186 17.8001C39.8309 17.8131 39.8427 17.8265 39.8542 17.8403C39.8666 17.8552 39.8785 17.8705 39.8899 17.8862C39.9023 17.9035 39.9143 17.9213 39.9255 17.9397C39.9382 17.9604 39.9502 17.9818 39.9612 18.0039C39.9743 18.0303 39.9862 18.0576 39.9968 18.0858C40.0113 18.1244 40.0233 18.1647 40.0325 18.2067ZM44.4535 8.8999H44.4681L44.4681 27.3332C44.4681 27.4433 44.4629 27.5522 44.4535 27.6599C44.4451 27.7547 44.4332 27.8484 44.4178 27.941C44.4074 28.0032 44.3956 28.0648 44.3822 28.1259C44.3713 28.1756 44.3594 28.225 44.3465 28.2739C44.3353 28.3161 44.3234 28.358 44.3108 28.3997C44.2995 28.4373 44.2877 28.4747 44.2752 28.5119C44.2638 28.5455 44.2518 28.5789 44.2395 28.6122C44.2281 28.6431 44.2161 28.6738 44.2039 28.7044C44.1923 28.7331 44.1805 28.7616 44.1682 28.7899C44.1566 28.8167 44.1447 28.8434 44.1326 28.8699C44.1209 28.8952 44.1091 28.9203 44.0969 28.9452C44.0853 28.9691 44.0734 28.9929 44.0613 29.0165C44.0496 29.0391 44.0377 29.0617 44.0256 29.084C44.014 29.1055 44.002 29.1268 43.9899 29.148C43.9783 29.1686 43.9664 29.189 43.9543 29.2093C43.9426 29.229 43.9307 29.2487 43.9186 29.2682C43.9069 29.2872 43.8951 29.3061 43.883 29.3249C43.8713 29.3431 43.8593 29.3611 43.8473 29.379C43.8356 29.3965 43.8237 29.4138 43.8117 29.4311C43.7999 29.4481 43.788 29.465 43.776 29.4817C43.7642 29.498 43.7524 29.5143 43.7404 29.5305C43.7286 29.5462 43.7167 29.5618 43.7047 29.5773C43.6929 29.5926 43.681 29.6079 43.6691 29.623C43.6573 29.6378 43.6454 29.6526 43.6334 29.6672C43.6216 29.6815 43.6097 29.6957 43.5977 29.7098C43.5859 29.7238 43.5741 29.7378 43.5621 29.7516C43.5503 29.7651 43.5384 29.7784 43.5264 29.7917C43.5146 29.8049 43.5027 29.8179 43.4908 29.8309C43.4789 29.8437 43.4671 29.8565 43.4551 29.8691C43.4434 29.8815 43.4314 29.8937 43.4195 29.9059C43.4076 29.918 43.3958 29.9303 43.3838 29.9422C43.372 29.9539 43.3601 29.9654 43.3482 29.977C43.3363 29.9884 43.3245 29.9999 43.3125 30.0113C43.3007 30.0224 43.2888 30.0334 43.2768 30.0444C43.265 30.0552 43.2531 30.0661 43.2412 30.0768C43.2294 30.0874 43.2175 30.0979 43.2055 30.1083C43.1937 30.1187 43.1818 30.1289 43.1699 30.139C43.158 30.1491 43.1462 30.1592 43.1342 30.1691C43.1224 30.1789 43.1105 30.1885 43.0986 30.1982C43.0867 30.2078 43.0749 30.2174 43.0629 30.2268C43.0511 30.2361 43.0392 30.2453 43.0273 30.2544C43.0154 30.2635 43.0036 30.2727 42.9916 30.2817C42.9798 30.2905 42.9679 30.2992 42.9559 30.3079C42.9441 30.3166 42.9322 30.3254 42.9203 30.3339C42.9085 30.3424 42.8965 30.3505 42.8846 30.3588C42.8728 30.3671 42.8609 30.3754 42.849 30.3835C42.8371 30.3915 42.8252 30.3994 42.8133 30.4073C42.8015 30.4151 42.7896 30.423 42.7777 30.4307C42.7658 30.4383 42.7539 30.4458 42.742 30.4533C42.7302 30.4608 42.7183 30.4683 42.7064 30.4756C42.6945 30.4828 42.6827 30.49 42.6707 30.4971L42.635 30.5182C42.6232 30.5251 42.6113 30.532 42.5994 30.5388C42.5876 30.5455 42.5756 30.5521 42.5637 30.5587C42.5519 30.5653 42.54 30.5719 42.5281 30.5783C42.5163 30.5847 42.5043 30.5909 42.4924 30.5971C42.4805 30.6034 42.4687 30.6098 42.4568 30.6159C42.445 30.6219 42.433 30.6277 42.4211 30.6336C42.4092 30.6395 42.3974 30.6455 42.3855 30.6513C42.3736 30.657 42.3617 30.6626 42.3498 30.6682L42.3141 30.6848L42.2785 30.701C42.2667 30.7063 42.2548 30.7114 42.2428 30.7165C42.231 30.7217 42.2191 30.727 42.2072 30.732C42.1954 30.737 42.1834 30.7416 42.1715 30.7465C42.1597 30.7514 42.1478 30.7563 42.1359 30.7611C42.124 30.7657 42.1121 30.7702 42.1002 30.7748C42.0884 30.7793 42.0765 30.7839 42.0646 30.7883L42.0289 30.8014C42.0171 30.8057 42.0051 30.8098 41.9933 30.8139C41.9814 30.8181 41.9696 30.8224 41.9576 30.8264C41.9458 30.8304 41.9338 30.8341 41.9219 30.838L41.8863 30.8495C41.8745 30.8533 41.8625 30.8569 41.8506 30.8605L41.815 30.8711C41.8031 30.8746 41.7913 30.8781 41.7793 30.8815C41.7675 30.8848 41.7556 30.8879 41.7437 30.8911C41.7318 30.8944 41.72 30.8977 41.708 30.9008L41.6724 30.9097L41.6367 30.9184L41.6011 30.9269C41.5892 30.9296 41.5773 30.932 41.5654 30.9346C41.5535 30.9372 41.5417 30.9399 41.5297 30.9424L41.4941 30.9495L41.4584 30.9563C41.4466 30.9585 41.4347 30.9609 41.4228 30.963C41.4109 30.9651 41.399 30.9669 41.3871 30.9689L41.3515 30.9748L41.3158 30.9802L41.2802 30.9851C41.2683 30.9868 41.2564 30.9886 41.2445 30.9901C41.2327 30.9916 41.2207 30.9928 41.2089 30.9942C41.197 30.9956 41.1851 30.997 41.1732 30.9983C41.1613 30.9995 41.1495 31.0008 41.1376 31.002C41.1257 31.0031 41.1138 31.0041 41.1019 31.0051C41.09 31.0062 41.0781 31.0073 41.0662 31.0083C41.0544 31.0092 41.0425 31.0099 41.0306 31.0108L40.9949 31.013C40.983 31.0137 40.9712 31.0146 40.9593 31.0152C40.9474 31.0157 40.9355 31.016 40.9236 31.0165L40.888 31.0179L40.8523 31.0188C40.8405 31.0191 40.8285 31.0191 40.8167 31.0193L40.781 31.0197L40.7736 31.0198H40.7454H40.7097H40.674H40.6384H40.6027H40.5671H40.5314H40.4958H40.4601H40.4245H40.3888H40.3531H40.3175H40.2818H40.2462H40.2105H40.1749H40.1392H40.1036H40.0679H40.0323H39.9966H39.9609H39.9253H39.8896H39.854H39.8183H39.7827H39.747H39.7114H39.6757H39.64H39.6044H39.5687H39.5331H39.4974H39.4618H39.4261H39.3905H39.3548H39.3191H39.2835H39.2478H39.2122H39.1765H39.1409H39.1052H39.0696H39.0339H38.9982H38.9626H38.9269H38.8913H38.8556H38.82H38.7843H38.7487H38.713H38.6774H38.6417H38.606H38.5704H38.5347H38.4991H38.4634H38.4278H38.3921H38.3565H38.3208H38.2851H38.2495H38.2138H38.1782H38.1425H38.1069H38.0712H38.0356H37.9999H37.9643H37.9286H37.8929H37.8573H37.8216H37.786H37.7503H37.7147H37.679H37.6434H37.6077H37.5721H37.5364H37.5008H37.4651H37.4294H37.3938H37.3581H37.3225H37.2868H37.2512H37.2155H37.1799H37.1442H37.1086H37.0729H37.0372H37.0016H36.9659H36.9303H36.8946H36.859H36.8233H36.7877H36.752H36.7164H36.6807H36.645H36.6094H36.5737H36.5381H36.5024H36.4668H36.4311H36.3955H36.3598H36.3241H36.2885H36.2528H36.2172H36.1815H36.1459H36.1102H36.0746H36.0389H36.0032H35.9676H35.9319H35.8963H35.8606H35.825H35.7893H35.7537H35.718H35.6823H35.6467H35.611H35.5754H35.5397H35.5041H35.4684H35.4328H35.3558V23.5039H35.4328H35.4684H35.5041H35.5397H35.5754H35.611H35.6467H35.6823H35.718H35.7537H35.7893H35.825H35.8606H35.8963H35.9319H35.9676H36.0032H36.0389H36.0746H36.1102H36.1459H36.1815H36.2172H36.2528H36.2885H36.3241H36.3598H36.3955H36.4311H36.4668H36.5024H36.5381H36.5737H36.6094H36.645H36.6807H36.7164H36.752H36.7877H36.8233H36.859H36.8946H36.9303H36.9659H37.0016H37.0372H37.0729H37.1086H37.1442H37.1799H37.2155H37.2512H37.2868H37.3225H37.3581H37.3938H37.4294H37.4651H37.5008H37.5364H37.5721H37.6077H37.6434H37.679H37.7147H37.7503H37.786H37.8216H37.8573H37.8929H37.9286H37.9643H37.9999H38.0356H38.0712H38.1069H38.1425H38.1782H38.2138H38.2495H38.2851H38.3208H38.3565H38.3921H38.4278H38.4634H38.4991H38.5347H38.5704H38.606H38.6417H38.6774H38.713H38.7487H38.7843H38.82H38.8556H38.8913H38.9269H38.9626H38.9982H39.0339H39.0696H39.1052H39.1409H39.1765H39.2122H39.2478H39.2835H39.3191H39.3548H39.3905H39.4261H39.4618H39.4974H39.5331H39.5687H39.6044H39.64H39.6757H39.7114H39.747H39.7827H39.8183H39.854H39.8896H39.9253H39.9609H39.9966H40.0323H40.0679H40.1036H40.1392H40.1749H40.2105H40.2462H40.2818H40.3175H40.3531H40.3888H40.4245H40.4601H40.4958H40.5314H40.5671H40.6027H40.6384H40.674H40.7097H40.7454H40.781H40.8167H40.8523H40.888H40.9236H40.9593H40.9949H41.0306H41.0662H41.0851L41.1019 23.5038L41.1376 23.5035L41.1732 23.5027C41.1851 23.5024 41.197 23.5023 41.2089 23.5018C41.2208 23.5014 41.2326 23.5009 41.2445 23.5003L41.2802 23.4987L41.3158 23.4965L41.3515 23.4941L41.3871 23.4913L41.4228 23.488C41.4347 23.4869 41.4466 23.4858 41.4584 23.4846C41.4704 23.4834 41.4822 23.4819 41.4941 23.4805L41.5297 23.4762C41.5417 23.4747 41.5536 23.4732 41.5654 23.4716C41.5773 23.4699 41.5892 23.4681 41.6011 23.4663C41.613 23.4645 41.6249 23.4627 41.6367 23.4608L41.6724 23.4548L41.708 23.4484C41.7199 23.4462 41.7319 23.4441 41.7437 23.4417C41.7556 23.4394 41.7675 23.4368 41.7793 23.4344L41.815 23.4267C41.8269 23.424 41.8388 23.4214 41.8506 23.4186C41.8626 23.4158 41.8745 23.4128 41.8863 23.4099C41.8982 23.4069 41.9101 23.4039 41.9219 23.4008C41.9339 23.3977 41.9458 23.3945 41.9576 23.3912C41.9696 23.388 41.9814 23.3846 41.9933 23.3811C42.0052 23.3777 42.0171 23.3741 42.0289 23.3705L42.0646 23.3594C42.0766 23.3556 42.0884 23.3516 42.1002 23.3477C42.1122 23.3436 42.1241 23.3396 42.1359 23.3355C42.1478 23.3313 42.1597 23.3271 42.1715 23.3228C42.1835 23.3184 42.1954 23.3138 42.2072 23.3092C42.2191 23.3046 42.231 23.3 42.2428 23.2952C42.2548 23.2904 42.2667 23.2856 42.2785 23.2807C42.2905 23.2757 42.3023 23.2705 42.3141 23.2653C42.3261 23.2601 42.338 23.2547 42.3498 23.2493C42.3618 23.2438 42.3737 23.2383 42.3855 23.2327C42.3974 23.227 42.4093 23.2212 42.4211 23.2154C42.4331 23.2094 42.4449 23.2033 42.4568 23.1971C42.4687 23.1909 42.4806 23.1845 42.4924 23.1781C42.5044 23.1716 42.5163 23.165 42.5281 23.1583C42.5401 23.1515 42.552 23.1446 42.5637 23.1376C42.5757 23.1306 42.5876 23.1234 42.5994 23.1161C42.6114 23.1087 42.6233 23.1011 42.635 23.0935C42.6471 23.0857 42.6589 23.0778 42.6707 23.0698C42.6827 23.0617 42.6946 23.0534 42.7064 23.0451C42.7184 23.0366 42.7303 23.028 42.742 23.0192C42.7541 23.0103 42.7659 23.0013 42.7777 22.9922C42.7897 22.9828 42.8016 22.9733 42.8133 22.9638C42.8254 22.9539 42.8372 22.944 42.849 22.9339C42.861 22.9236 42.8729 22.9131 42.8846 22.9025C42.8967 22.8916 42.9086 22.8806 42.9203 22.8694C42.9324 22.8579 42.9442 22.8463 42.9559 22.8345C42.9681 22.8223 42.9799 22.81 42.9916 22.7974C43.0037 22.7845 43.0156 22.7714 43.0273 22.7582C43.0394 22.7444 43.0513 22.7304 43.0629 22.7163C43.0751 22.7016 43.0869 22.6867 43.0986 22.6716C43.1107 22.6558 43.1227 22.6399 43.1342 22.6237C43.1465 22.6065 43.1583 22.5891 43.1699 22.5714C43.1821 22.5527 43.194 22.5338 43.2055 22.5146C43.2179 22.494 43.2298 22.4731 43.2412 22.4519C43.2536 22.4289 43.2656 22.4056 43.2768 22.3819C43.2895 22.3554 43.3013 22.3286 43.3125 22.3013C43.3253 22.27 43.3372 22.2384 43.3482 22.2061C43.3616 22.1663 43.3734 22.1258 43.3838 22.0845C43.399 22.0242 43.4109 21.9623 43.4195 21.8989C43.4298 21.822 43.4352 21.7429 43.4352 21.6616C43.4352 21.5825 43.4299 21.5057 43.4195 21.431C43.4109 21.3697 43.399 21.3099 43.3838 21.2517C43.3734 21.2121 43.3615 21.1732 43.3482 21.135C43.3372 21.1037 43.3253 21.0729 43.3125 21.0426C43.3013 21.0164 43.2894 20.9905 43.2768 20.9651C43.2655 20.9422 43.2536 20.9197 43.2412 20.8974C43.2297 20.877 43.2179 20.8567 43.2055 20.8368C43.1941 20.8183 43.1821 20.8001 43.1699 20.7821C43.1583 20.7651 43.1465 20.7483 43.1342 20.7317C43.1227 20.7161 43.1107 20.7007 43.0986 20.6855C43.0869 20.6709 43.0751 20.6566 43.0629 20.6424C43.0512 20.6287 43.0394 20.6152 43.0273 20.6019C43.0156 20.5891 43.0037 20.5765 42.9916 20.564C42.9799 20.552 42.968 20.5401 42.9559 20.5284C42.9442 20.517 42.9323 20.5057 42.9203 20.4947C42.9086 20.4839 42.8967 20.4733 42.8846 20.4628C42.8729 20.4525 42.861 20.4424 42.849 20.4325C42.8372 20.4227 42.8254 20.4131 42.8133 20.4036C42.8016 20.3944 42.7897 20.3852 42.7777 20.3762C42.7659 20.3673 42.754 20.3586 42.742 20.35C42.7303 20.3415 42.7184 20.3332 42.7064 20.325C42.6946 20.3169 42.6827 20.3089 42.6707 20.301C42.6589 20.2933 42.647 20.2857 42.635 20.2782C42.6233 20.2708 42.6114 20.2635 42.5994 20.2563C42.5876 20.2492 42.5757 20.2423 42.5637 20.2354C42.5519 20.2286 42.5401 20.222 42.5281 20.2154C42.5163 20.2089 42.5044 20.2025 42.4924 20.1963C42.4806 20.19 42.4687 20.1839 42.4568 20.1778C42.445 20.1719 42.4331 20.1659 42.4211 20.1601C42.4093 20.1544 42.3975 20.1487 42.3855 20.1431C42.3737 20.1377 42.3618 20.1323 42.3498 20.127C42.338 20.1218 42.3261 20.1166 42.3141 20.1115C42.3023 20.1065 42.2904 20.1015 42.2785 20.0966C42.2667 20.0918 42.2548 20.0869 42.2428 20.0822C42.231 20.0776 42.2191 20.073 42.2072 20.0686C42.1954 20.0641 42.1835 20.0599 42.1715 20.0555C42.1597 20.0513 42.1478 20.0472 42.1359 20.043C42.124 20.039 42.1122 20.0349 42.1002 20.031C42.0884 20.0271 42.0765 20.0233 42.0646 20.0195C42.0528 20.0158 42.0408 20.0122 42.0289 20.0087L41.9933 19.9982C41.9814 19.9948 41.9696 19.9914 41.9576 19.9882C41.9458 19.985 41.9339 19.9819 41.9219 19.9788C41.9101 19.9757 41.8982 19.9728 41.8863 19.9698C41.8745 19.9669 41.8626 19.964 41.8506 19.9613C41.8388 19.9585 41.8269 19.9558 41.815 19.9532C41.8032 19.9506 41.7913 19.948 41.7793 19.9456C41.7675 19.9431 41.7556 19.9406 41.7437 19.9383L41.708 19.9315L41.6724 19.9251C41.6605 19.9231 41.6487 19.921 41.6367 19.9191L41.6011 19.9135C41.5892 19.9117 41.5773 19.91 41.5654 19.9084L41.5297 19.9035L41.4941 19.899L41.4584 19.895L41.4228 19.8912L41.3871 19.8879L41.3515 19.885L41.3186 19.8824L41.3185 19.8398L41.3515 19.8347L41.3871 19.8288C41.3991 19.8268 41.411 19.8247 41.4228 19.8226L41.4584 19.8157C41.4704 19.8134 41.4823 19.8109 41.4941 19.8084L41.5297 19.8007C41.5417 19.798 41.5536 19.7953 41.5654 19.7924C41.5774 19.7896 41.5892 19.7865 41.6011 19.7835C41.613 19.7805 41.6249 19.7773 41.6367 19.7741C41.6487 19.7709 41.6606 19.7676 41.6724 19.7642C41.6843 19.7608 41.6962 19.7573 41.708 19.7538C41.72 19.7502 41.7319 19.7464 41.7437 19.7427C41.7557 19.7388 41.7675 19.7349 41.7793 19.7309C41.7913 19.7269 41.8032 19.7227 41.815 19.7185C41.827 19.7143 41.8388 19.71 41.8506 19.7055C41.8626 19.7011 41.8745 19.6965 41.8863 19.6919C41.8983 19.6872 41.9102 19.6824 41.9219 19.6775C41.9339 19.6726 41.9458 19.6675 41.9576 19.6624C41.9696 19.6572 41.9815 19.6519 41.9933 19.6465C42.0052 19.641 42.0171 19.6354 42.0289 19.6298C42.0409 19.624 42.0528 19.6181 42.0646 19.6122C42.0766 19.6062 42.0885 19.6 42.1002 19.5938C42.1122 19.5875 42.1241 19.581 42.1359 19.5745C42.1479 19.5678 42.1598 19.5611 42.1715 19.5542C42.1835 19.5472 42.1954 19.5401 42.2072 19.5329C42.2192 19.5256 42.2311 19.5182 42.2428 19.5106C42.2549 19.5029 42.2667 19.495 42.2785 19.4871C42.2905 19.479 42.3024 19.4708 42.3141 19.4624C42.3262 19.4539 42.3381 19.4452 42.3498 19.4365C42.3619 19.4275 42.3738 19.4184 42.3855 19.4092C42.3975 19.3997 42.4094 19.3901 42.4211 19.3804C42.4332 19.3704 42.4451 19.3602 42.4568 19.3499C42.4689 19.3393 42.4807 19.3285 42.4924 19.3176C42.5045 19.3064 42.5164 19.295 42.5281 19.2835C42.5402 19.2716 42.5521 19.2596 42.5637 19.2474C42.5759 19.2346 42.5878 19.2218 42.5994 19.2087C42.6116 19.1952 42.6234 19.1814 42.635 19.1675C42.6472 19.153 42.6591 19.1382 42.6707 19.1233C42.6829 19.1076 42.6948 19.0917 42.7064 19.0756C42.7186 19.0585 42.7305 19.0412 42.742 19.0238C42.7543 19.0051 42.7662 18.9863 42.7777 18.9672C42.79 18.9465 42.802 18.9256 42.8133 18.9045C42.8258 18.8812 42.8377 18.8577 42.849 18.8339C42.8616 18.8071 42.8735 18.7799 42.8846 18.7525C42.8976 18.7205 42.9095 18.6881 42.9203 18.6553C42.9339 18.6141 42.9458 18.5721 42.9559 18.5296C42.9724 18.4608 42.9843 18.3904 42.9916 18.3189C42.9974 18.2624 43.0004 18.2052 43.0004 18.1474C43.0004 18.0864 42.9974 18.0269 42.9916 17.9689C42.9843 17.8948 42.9723 17.8232 42.9559 17.754C42.9458 17.7108 42.9338 17.6686 42.9203 17.6275C42.9094 17.5945 42.8976 17.5622 42.8846 17.5306C42.8735 17.5033 42.8616 17.4765 42.849 17.4502C42.8377 17.4267 42.8258 17.4036 42.8133 17.3809C42.8019 17.3601 42.79 17.3396 42.7777 17.3195C42.7662 17.3007 42.7543 17.2823 42.742 17.2641C42.7305 17.2471 42.7186 17.2303 42.7064 17.2138C42.6948 17.1982 42.6829 17.1828 42.6707 17.1676C42.6591 17.1531 42.6473 17.1387 42.635 17.1246C42.6234 17.1112 42.6115 17.098 42.5994 17.0849C42.5878 17.0723 42.5759 17.06 42.5637 17.0477C42.5521 17.0359 42.5402 17.0243 42.5281 17.0128C42.5164 17.0017 42.5045 16.9907 42.4924 16.9799C42.4807 16.9694 42.4688 16.9591 42.4568 16.9489C42.445 16.939 42.4332 16.9292 42.4211 16.9195C42.4094 16.9102 42.3975 16.9009 42.3855 16.8918C42.3737 16.8829 42.3618 16.8741 42.3498 16.8655C42.3381 16.857 42.3262 16.8487 42.3141 16.8404C42.3024 16.8324 42.2905 16.8245 42.2785 16.8167C42.2667 16.809 42.2548 16.8015 42.2428 16.7941C42.2311 16.7868 42.2192 16.7796 42.2072 16.7725C42.1954 16.7656 42.1835 16.7587 42.1715 16.752C42.1598 16.7453 42.1479 16.7388 42.1359 16.7324C42.1241 16.726 42.1122 16.7198 42.1002 16.7137C42.0884 16.7076 42.0766 16.7017 42.0646 16.6958C42.0528 16.69 42.0409 16.6843 42.0289 16.6787C42.0171 16.6732 42.0052 16.6677 41.9933 16.6624C41.9815 16.6571 41.9696 16.6521 41.9576 16.647C41.9458 16.642 41.9339 16.637 41.9219 16.6322C41.9102 16.6274 41.8982 16.6227 41.8863 16.618C41.8745 16.6135 41.8626 16.6089 41.8506 16.6045C41.8388 16.6001 41.827 16.5959 41.815 16.5916C41.8032 16.5875 41.7913 16.5834 41.7793 16.5794C41.7675 16.5755 41.7556 16.5716 41.7437 16.5678C41.7319 16.564 41.72 16.5603 41.708 16.5567C41.6962 16.5531 41.6844 16.5495 41.6724 16.5461C41.6606 16.5427 41.6487 16.5394 41.6367 16.5361C41.6249 16.5329 41.613 16.5298 41.6011 16.5267L41.5654 16.5176C41.5536 16.5147 41.5417 16.5118 41.5297 16.5091C41.5179 16.5063 41.506 16.5037 41.4941 16.5011L41.4584 16.4935C41.4466 16.491 41.4348 16.4886 41.4228 16.4863C41.411 16.484 41.399 16.4818 41.3871 16.4797L41.3515 16.4734C41.3396 16.4714 41.3278 16.4694 41.3158 16.4675L41.2802 16.4621L41.2445 16.4571L41.2089 16.4524L41.1732 16.4481L41.1376 16.4443L41.1019 16.4407L41.0662 16.4376L41.0306 16.4349L40.9949 16.4323L40.9593 16.4303L40.9451 16.4295L40.9236 16.4282L40.888 16.4261L40.8523 16.4241L40.8167 16.4222L40.781 16.4205L40.7454 16.419L40.7097 16.4177L40.674 16.4166L40.6384 16.4158L40.6027 16.4153L40.5831 16.4153H40.5671H40.5314H40.4958H40.4601H40.4245H40.3888H40.3531H40.3175H40.2818H40.2462H40.2105H40.1749H40.1392H40.1036H40.0679H40.0323H39.9966H39.9609H39.9253H39.8896H39.854H39.8183H39.7827H39.747H39.7114H39.6757H39.64H39.6044H39.5687H39.5331H39.4974H39.4618H39.4261H39.3905H39.3548H39.3191H39.2835H39.2478H39.2122H39.1765H39.1409H39.1052H39.0696H39.0339H38.9982H38.9626H38.9269H38.8913H38.8556H38.82H38.7843H38.7487H38.713H38.6774H38.6417H38.606H38.5704H38.5347H38.4991H38.4634H38.4278H38.3921H38.3565H38.3208H38.2851H38.2495H38.2138H38.1782H38.1425H38.1069H38.0712H38.0356H37.9999H37.9643H37.9286H37.8929H37.8573H37.8216H37.786H37.7503H37.7147H37.679H37.6434H37.6077H37.5721H37.5364H37.5008H37.4651H37.4294H37.3938H37.3581H37.3225H37.2868H37.2512H37.2155H37.1799H37.1442H37.1086H37.0729H37.0372H37.0016H36.9659H36.9303H36.8946H36.859H36.8233H36.7877H36.752H36.7164H36.6807H36.645H36.6094H36.5737H36.5381H36.5024H36.4668H36.4311H36.3955H36.3598H36.3241H36.2885H36.2528H36.2172H36.1815H36.1459H36.1102H36.0746H36.0389H36.0032H35.9676H35.9319H35.8963H35.8606H35.825H35.7893H35.7537H35.718H35.6823H35.6467H35.611H35.5754H35.5397H35.5041H35.4684H35.4328H35.3558V12.5869C35.3558 12.3293 35.3824 12.078 35.4328 11.8353C35.4436 11.7833 35.4555 11.7318 35.4684 11.6807C35.4795 11.637 35.4914 11.5936 35.5041 11.5505C35.5154 11.512 35.5272 11.4738 35.5397 11.4358C35.5511 11.4011 35.563 11.3666 35.5754 11.3324C35.5869 11.3007 35.5987 11.2691 35.611 11.2378C35.6226 11.2085 35.6344 11.1794 35.6467 11.1505C35.6583 11.1233 35.6701 11.0962 35.6823 11.0692C35.6939 11.0437 35.7059 11.0183 35.718 10.993C35.7296 10.9689 35.7415 10.945 35.7537 10.9212C35.7653 10.8983 35.7772 10.8756 35.7893 10.853C35.801 10.8312 35.8129 10.8096 35.825 10.788C35.8367 10.7671 35.8485 10.7464 35.8606 10.7258C35.8724 10.7058 35.8842 10.6859 35.8963 10.6662C35.908 10.6471 35.9199 10.6281 35.9319 10.6092C35.9436 10.5908 35.9556 10.5727 35.9676 10.5546C35.9793 10.5369 35.9912 10.5193 36.0032 10.5018C36.015 10.4847 36.0268 10.4675 36.0389 10.4506C36.0506 10.4342 36.0626 10.418 36.0746 10.4018C36.0863 10.3859 36.0982 10.3701 36.1102 10.3544C36.122 10.3389 36.1338 10.3233 36.1459 10.3081C36.1576 10.2932 36.1696 10.2786 36.1815 10.2639C36.1933 10.2494 36.2052 10.235 36.2172 10.2208C36.229 10.2067 36.2408 10.1926 36.2528 10.1787C36.2646 10.1651 36.2765 10.1518 36.2885 10.1384C36.3003 10.1251 36.3121 10.1118 36.3241 10.0987C36.3359 10.0859 36.3478 10.0732 36.3598 10.0605C36.3716 10.048 36.3835 10.0356 36.3955 10.0232C36.4073 10.011 36.4191 9.99884 36.4311 9.98681C36.4429 9.97499 36.4548 9.96334 36.4668 9.95169C36.4786 9.9401 36.4904 9.92839 36.5024 9.91697C36.5142 9.9058 36.5262 9.89488 36.5381 9.88385C36.5499 9.87288 36.5617 9.86188 36.5737 9.85106C36.5855 9.84041 36.5975 9.82997 36.6094 9.8195C36.6212 9.80909 36.6331 9.79868 36.645 9.78842C36.6569 9.7783 36.6687 9.76833 36.6807 9.75836C36.6925 9.74848 36.7044 9.73863 36.7164 9.7289C36.7282 9.71926 36.7401 9.70973 36.752 9.70026L36.7877 9.67228L36.8233 9.64503C36.8351 9.63609 36.847 9.62721 36.859 9.61842C36.8708 9.60972 36.8827 9.60105 36.8946 9.59247L36.9303 9.5672C36.9421 9.55891 36.954 9.55068 36.9659 9.54254L37.0016 9.51844L37.0372 9.495C37.0491 9.4873 37.0609 9.47963 37.0729 9.47208L37.1086 9.44985C37.1204 9.4425 37.1323 9.43516 37.1442 9.42796C37.156 9.42083 37.168 9.41389 37.1799 9.4069C37.1917 9.39992 37.2035 9.39287 37.2155 9.38602C37.2273 9.37927 37.2393 9.37275 37.2512 9.36612C37.2631 9.35948 37.2748 9.35273 37.2868 9.34624C37.2986 9.33984 37.3106 9.33365 37.3225 9.32736C37.3344 9.32108 37.3462 9.31477 37.3581 9.30861C37.3699 9.3025 37.3819 9.29657 37.3938 9.29062C37.4056 9.28469 37.4175 9.27873 37.4294 9.27292L37.4651 9.25573C37.4769 9.25009 37.4889 9.24461 37.5008 9.23909C37.5126 9.23361 37.5245 9.22803 37.5364 9.22267C37.5482 9.21736 37.5602 9.21228 37.5721 9.20709C37.5839 9.2019 37.5958 9.19662 37.6077 9.19155C37.6195 9.18654 37.6315 9.18176 37.6434 9.17686C37.6552 9.172 37.6671 9.16707 37.679 9.16232L37.7147 9.14832L37.7503 9.13478C37.7622 9.1303 37.7741 9.12575 37.786 9.12142C37.7978 9.11711 37.8098 9.11307 37.8216 9.10888C37.8335 9.1047 37.8454 9.10042 37.8573 9.09635C37.8691 9.09231 37.8811 9.08851 37.8929 9.08458L37.9286 9.07305C37.9405 9.06928 37.9523 9.06547 37.9643 9.06182C37.9761 9.05819 37.988 9.05477 37.9999 9.05126C38.0118 9.04772 38.0236 9.04406 38.0356 9.04067C38.0474 9.03731 38.0593 9.03418 38.0712 9.03094C38.0831 9.02769 38.095 9.02442 38.1069 9.02129L38.1425 9.01209C38.1544 9.00911 38.1663 9.00628 38.1782 9.00342C38.1901 9.00056 38.2019 8.99749 38.2138 8.99475C38.2257 8.99204 38.2376 8.98956 38.2495 8.98693L38.2851 8.97918L38.3208 8.97183C38.3326 8.96947 38.3446 8.96726 38.3565 8.96502C38.3684 8.96275 38.3802 8.96033 38.3921 8.95818C38.404 8.95603 38.4159 8.9542 38.4278 8.95219L38.4634 8.94629C38.4753 8.94441 38.4872 8.94246 38.4991 8.94069C38.5109 8.93892 38.5229 8.93736 38.5347 8.93571C38.5466 8.93405 38.5585 8.93226 38.5704 8.93072C38.5823 8.92919 38.5942 8.92783 38.606 8.92642L38.6417 8.92235C38.6536 8.92105 38.6654 8.9196 38.6774 8.91842C38.6892 8.91724 38.7011 8.91633 38.713 8.91527L38.7487 8.91211L38.7843 8.90943C38.7962 8.90857 38.8081 8.90789 38.82 8.90716C38.8318 8.90645 38.8437 8.90554 38.8556 8.90492C38.8675 8.9043 38.8794 8.90394 38.8913 8.90344L38.9269 8.90211C38.9389 8.90173 38.9507 8.90123 38.9626 8.90096C38.9745 8.9007 38.9864 8.90067 38.9982 8.90049C39.0101 8.90032 39.022 8.90011 39.0339 8.90005L39.0429 8.89993H39.0696H39.1052H39.1409H39.1765H39.2122H39.2478H39.2835H39.3191H39.3548H39.3905H39.4261H39.4618H39.4974H39.5331H39.5687H39.6044H39.64H39.6757H39.7114H39.747H39.7827H39.8183H39.854H39.8896H39.9253H39.9609H39.9966H40.0323H40.0679H40.1036H40.1392H40.1749H40.2105H40.2462H40.2818H40.3175H40.3531H40.3888H40.4245H40.4601H40.4958H40.5314H40.5671H40.6027H40.6384H40.674H40.7097H40.7454H40.781H40.8167H40.8523H40.888H40.9236H40.9593H40.9949H41.0306H41.0662H41.1019H41.1376H41.1732H41.2089H41.2445H41.2802H41.3158H41.3515H41.3871H41.4228H41.4584H41.4941H41.5297H41.5654H41.6011H41.6367H41.6724H41.708H41.7437H41.7793H41.815H41.8506H41.8863H41.9219H41.9576H41.9933H42.0289H42.0646H42.1002H42.1359H42.1715H42.2072H42.2428H42.2785H42.3141H42.3498H42.3855H42.4211H42.4568H42.4924H42.5281H42.5637H42.5994H42.635H42.6707H42.7064H42.742H42.7777H42.8133H42.849H42.8846H42.9203H42.9559H42.9916H43.0273H43.0629H43.0986H43.1342H43.1699H43.2055H43.2412H43.2768H43.3125H43.3482H43.3838H43.4195H43.4551H43.4908H43.5264H43.5621H43.5977H43.6334H43.6691H43.7047H43.7404H43.776H43.8117H43.8473H43.883H43.9186H43.9543H43.9899H44.0256H44.0613H44.0969H44.1326H44.1682H44.2039H44.2395H44.2752H44.3108H44.3465H44.3822H44.4178H44.4535V8.8999Z" fill="#54B230"/>
<path fill-rule="evenodd" clip-rule="evenodd" d="M14.9166 21.6917V12.5868C14.9166 12.33 14.943 12.0793 14.9931 11.8373C15.0038 11.7853 15.0158 11.7338 15.0287 11.6827C15.0397 11.6389 15.0516 11.5955 15.0643 11.5523C15.0755 11.5139 15.0874 11.4757 15.0998 11.4378C15.1113 11.4031 15.123 11.3685 15.1355 11.3342C15.1469 11.3025 15.1587 11.271 15.171 11.2397C15.1825 11.2104 15.1944 11.1813 15.2066 11.1524C15.2182 11.1251 15.23 11.0981 15.2422 11.0712C15.2538 11.0456 15.2657 11.0202 15.2778 10.995C15.2894 10.9709 15.3013 10.9469 15.3134 10.9231C15.325 10.9002 15.3369 10.8775 15.349 10.8549C15.3606 10.8331 15.3725 10.8114 15.3846 10.7899C15.3962 10.7691 15.4081 10.7483 15.4202 10.7277C15.4319 10.7078 15.4437 10.6878 15.4558 10.6681C15.4675 10.6489 15.4793 10.63 15.4914 10.6111C15.503 10.5928 15.515 10.5747 15.527 10.5566C15.5387 10.5389 15.5505 10.5212 15.5625 10.5038C15.5744 10.4866 15.5861 10.4695 15.5981 10.4525C15.6098 10.4361 15.6218 10.42 15.6337 10.4038C15.6455 10.3878 15.6573 10.372 15.6693 10.3563C15.6811 10.3409 15.6929 10.3253 15.7049 10.31C15.7166 10.2952 15.7286 10.2806 15.7405 10.2659C15.7523 10.2514 15.7641 10.237 15.7761 10.2227C15.7879 10.2087 15.7997 10.1946 15.8117 10.1807C15.8234 10.1671 15.8353 10.1538 15.8473 10.1403C15.8591 10.127 15.8709 10.1138 15.8829 10.1007C15.8946 10.0879 15.9065 10.0752 15.9184 10.0625C15.9302 10.05 15.9421 10.0376 15.9541 10.0252C15.9658 10.0131 15.9777 10.0009 15.9896 9.98885C16.0014 9.97702 16.0133 9.96537 16.0252 9.95372C16.0371 9.94213 16.0488 9.93045 16.0608 9.91904C16.0726 9.90786 16.0845 9.89695 16.0964 9.88592C16.1083 9.87492 16.12 9.86389 16.132 9.85306C16.1438 9.84245 16.1557 9.83204 16.1676 9.82157C16.1794 9.81116 16.1912 9.80072 16.2032 9.79045C16.215 9.78034 16.2269 9.7704 16.2388 9.76043C16.2506 9.75055 16.2624 9.74067 16.2744 9.73094C16.2862 9.72132 16.2981 9.7118 16.31 9.7023C16.3218 9.69289 16.3336 9.68357 16.3456 9.67431C16.3573 9.66514 16.3693 9.65609 16.3812 9.64706C16.393 9.63812 16.4048 9.62922 16.4167 9.62043L16.4523 9.59453C16.4641 9.58601 16.476 9.57755 16.4879 9.56917C16.4997 9.56088 16.5116 9.55269 16.5235 9.54455C16.5353 9.53644 16.5472 9.52838 16.5591 9.52042C16.5709 9.51255 16.5828 9.50479 16.5947 9.49703C16.6065 9.48934 16.6183 9.48158 16.6303 9.474C16.6421 9.46651 16.654 9.45919 16.6659 9.45182C16.6777 9.44448 16.6895 9.43705 16.7015 9.42985C16.7132 9.42274 16.7252 9.41584 16.7371 9.40885C16.7489 9.40186 16.7607 9.39475 16.7727 9.38788C16.7844 9.38113 16.7964 9.37467 16.8082 9.36803C16.8201 9.3614 16.8319 9.35467 16.8438 9.34816C16.8556 9.34173 16.8675 9.33553 16.8794 9.32925C16.8913 9.32297 16.9031 9.31666 16.915 9.31049C16.9268 9.30439 16.9387 9.2984 16.9506 9.29242L16.9862 9.27478C16.998 9.26897 17.0099 9.26316 17.0218 9.2575C17.0336 9.25186 17.0455 9.24641 17.0574 9.24089C17.0693 9.23538 17.081 9.22974 17.093 9.22438C17.1048 9.21904 17.1167 9.21403 17.1286 9.20883C17.1404 9.20364 17.1522 9.19836 17.1642 9.19329C17.176 9.18828 17.1879 9.18344 17.1998 9.17855L17.2353 9.16404L17.2709 9.14994L17.3065 9.13643C17.3184 9.13195 17.3302 9.12732 17.3421 9.12295C17.3539 9.11865 17.3659 9.11464 17.3777 9.11045C17.3896 9.10626 17.4014 9.10201 17.4133 9.09794L17.4489 9.08606L17.4845 9.07453C17.4963 9.07075 17.5082 9.06689 17.5201 9.06323C17.5319 9.0596 17.5438 9.05615 17.5557 9.05264C17.5675 9.0491 17.5794 9.04551 17.5913 9.04208C17.6031 9.03869 17.615 9.03554 17.6268 9.03226L17.6625 9.02262C17.6743 9.01949 17.6861 9.01631 17.698 9.0133C17.7099 9.01029 17.7218 9.00755 17.7336 9.00466C17.7455 9.00177 17.7573 8.99876 17.7692 8.99599C17.781 8.99325 17.793 8.99068 17.8048 8.98805L17.8404 8.98033C17.8523 8.97779 17.8641 8.97523 17.876 8.97284C17.8878 8.97048 17.8997 8.9683 17.9116 8.96602C17.9234 8.96375 17.9353 8.96139 17.9472 8.95924C17.959 8.95709 17.9709 8.95514 17.9828 8.95311L18.0184 8.94721C18.0302 8.94532 18.042 8.94329 18.0539 8.94149C18.0658 8.93969 18.0777 8.93818 18.0895 8.9365C18.1014 8.93485 18.1132 8.93308 18.1251 8.93152L18.1607 8.92706L18.1963 8.92302C18.2082 8.9217 18.22 8.92016 18.2319 8.91895C18.2437 8.91775 18.2556 8.91686 18.2675 8.91577L18.3031 8.91264C18.3149 8.91164 18.3268 8.91067 18.3387 8.90981C18.3505 8.90896 18.3624 8.90828 18.3743 8.90754C18.3862 8.9068 18.398 8.90595 18.4099 8.9053C18.4217 8.90465 18.4336 8.90421 18.4454 8.90368L18.4811 8.90232C18.4929 8.90191 18.5047 8.90129 18.5166 8.90099C18.5285 8.9007 18.5404 8.90073 18.5522 8.90055C18.5641 8.90037 18.5759 8.90017 18.5878 8.90011L18.6234 8.8999H18.659H18.6946H18.7302H18.7658H18.8014H18.837H18.8726H18.9081H18.9437H18.9793H19.0149H19.0505H19.0861H19.1217H19.1573H19.1929H19.2285H19.264H19.2997H19.3352H19.3708H19.4064H19.442H19.4776H19.5132H19.5488H19.5844H19.62H19.6556H19.6912H19.7268H19.7623H19.7979H19.8335H19.8691H19.9047H19.9403H19.9759H20.0115H20.0471H20.0827H20.1183H20.1538H20.1894H20.225H20.2606H20.2962H20.3318H20.3674H20.403H20.4386H20.4742H20.5098H20.5454H20.5809H20.6165H20.6521H20.6877H20.7233H20.7589H20.7945H20.8301H20.8657H20.9013H20.9369H20.9724H21.0081H21.0436H21.0792H21.1148H21.1504H21.186H21.2216H21.2572H21.2928H21.3284H21.364H21.3995H21.4351H21.4707H21.5063H21.5419H21.5775H21.6131H21.6487H21.6843H21.7199H21.7555H21.791H21.8267H21.8622H21.8978H21.9334H21.969H22.0046H22.0402H22.0758H22.1114H22.147H22.1826H22.2182H22.2537H22.2893H22.3249H22.3605H22.3961H22.4317H22.4673H22.5029H22.5385H22.5741H22.6096H22.6453H22.6808H22.7164H22.752H22.7876H22.8232H22.8588H22.8944H22.93H22.9656H23.0012H23.0368H23.0724H23.1079H23.1435H23.1791H23.2147H23.2503H23.2859H23.3215H23.3571H23.3927H23.4283H23.4639H23.4994H23.535H23.5706H23.6062H23.6418H23.6774H23.713H23.7486H23.7842H23.8198H23.8554H23.8909H23.9265H23.9621H23.9977H24.0279V27.3332C24.0279 27.4935 24.0176 27.6515 23.9977 27.8064C23.9882 27.881 23.9761 27.9549 23.9621 28.028C23.9515 28.0836 23.9397 28.1388 23.9265 28.1935C23.9155 28.2396 23.9037 28.2854 23.8909 28.3308C23.8797 28.3707 23.8678 28.4102 23.8554 28.4495C23.844 28.485 23.8321 28.5203 23.8198 28.5554C23.8083 28.5879 23.7965 28.6202 23.7842 28.6523C23.7727 28.6822 23.7608 28.7119 23.7486 28.7415C23.7371 28.7693 23.7252 28.797 23.713 28.8244C23.7014 28.8505 23.6895 28.8764 23.6774 28.9022C23.6658 28.9267 23.6539 28.9511 23.6418 28.9754C23.6302 28.9987 23.6183 29.0219 23.6062 29.0449C23.5946 29.067 23.5827 29.089 23.5706 29.1109C23.5589 29.1321 23.5472 29.1532 23.535 29.1741C23.5234 29.1943 23.5115 29.2143 23.4994 29.2343C23.4878 29.2536 23.4759 29.2726 23.4639 29.2917C23.4522 29.3103 23.4403 29.3288 23.4283 29.3472C23.4165 29.3651 23.4047 29.3831 23.3927 29.4008C23.381 29.418 23.3691 29.435 23.3571 29.452C23.3454 29.4686 23.3335 29.4851 23.3215 29.5015C23.3097 29.5177 23.2979 29.5337 23.2859 29.5497C23.2742 29.5652 23.2623 29.5807 23.2503 29.596C23.2386 29.6111 23.2267 29.6259 23.2147 29.6408C23.2029 29.6554 23.1911 29.6701 23.1791 29.6845C23.1674 29.6987 23.1555 29.7126 23.1435 29.7265C23.1318 29.7403 23.1199 29.7539 23.1079 29.7675C23.0961 29.7809 23.0844 29.7943 23.0724 29.8075C23.0606 29.8205 23.0487 29.8331 23.0368 29.8459C23.0249 29.8586 23.0132 29.8712 23.0012 29.8837C22.9894 29.896 22.9775 29.908 22.9656 29.9201C22.9538 29.9321 22.942 29.9439 22.93 29.9557C22.9182 29.9674 22.9063 29.9789 22.8944 29.9904C22.8826 30.0017 22.8707 30.0129 22.8588 30.024C22.847 30.0351 22.8352 30.0462 22.8232 30.0571C22.8115 30.0678 22.7995 30.0783 22.7876 30.0888C22.7758 30.0994 22.764 30.11 22.752 30.1203C22.7403 30.1305 22.7283 30.1404 22.7164 30.1504C22.7046 30.1604 22.6928 30.1705 22.6808 30.1803C22.6691 30.19 22.6571 30.1995 22.6453 30.209C22.6334 30.2185 22.6216 30.228 22.6096 30.2374C22.5979 30.2466 22.5859 30.2556 22.5741 30.2646C22.5622 30.2736 22.5505 30.2827 22.5385 30.2916C22.5267 30.3004 22.5148 30.3089 22.5029 30.3175C22.491 30.3261 22.4793 30.3348 22.4673 30.3432C22.4555 30.3516 22.4436 30.3597 22.4317 30.3679C22.4198 30.3761 22.4081 30.3843 22.3961 30.3924C22.3843 30.4003 22.3724 30.408 22.3605 30.4158C22.3487 30.4236 22.3369 30.4315 22.3249 30.4392C22.3132 30.4467 22.3012 30.4539 22.2893 30.4613C22.2775 30.4687 22.2657 30.4762 22.2537 30.4835C22.2419 30.4907 22.23 30.4976 22.2182 30.5046C22.2063 30.5117 22.1945 30.5187 22.1826 30.5256C22.1708 30.5325 22.1589 30.5391 22.147 30.5458C22.1351 30.5525 22.1233 30.5591 22.1114 30.5657C22.0996 30.5722 22.0877 30.5786 22.0758 30.5849L22.0402 30.6037C22.0283 30.6098 22.0165 30.616 22.0046 30.6221C21.9928 30.628 21.9809 30.6339 21.969 30.6397C21.9572 30.6456 21.9454 30.6516 21.9334 30.6573C21.9216 30.663 21.9097 30.6684 21.8978 30.6739C21.886 30.6794 21.8742 30.6851 21.8622 30.6905C21.8504 30.6959 21.8385 30.701 21.8267 30.7063L21.791 30.7218L21.7555 30.7369C21.7436 30.7418 21.7317 30.7466 21.7199 30.7514C21.708 30.7562 21.6962 30.7611 21.6843 30.7658C21.6725 30.7704 21.6606 30.7747 21.6487 30.7792C21.6368 30.7838 21.625 30.7884 21.6131 30.7928C21.6013 30.7971 21.5894 30.8013 21.5775 30.8055L21.5419 30.818L21.5063 30.8302C21.4945 30.8342 21.4826 30.8379 21.4707 30.8417C21.4589 30.8456 21.4471 30.8496 21.4351 30.8533C21.4233 30.857 21.4114 30.8604 21.3995 30.8639L21.364 30.8745L21.3284 30.8846C21.3165 30.8879 21.3047 30.891 21.2928 30.8942C21.2809 30.8974 21.2691 30.9008 21.2572 30.9038C21.2454 30.9068 21.2334 30.9095 21.2216 30.9125C21.2097 30.9154 21.1979 30.9183 21.186 30.9211L21.1504 30.9293L21.1148 30.9371C21.1029 30.9396 21.0912 30.9424 21.0792 30.9448C21.0674 30.9472 21.0555 30.9493 21.0436 30.9516C21.0318 30.9539 21.0199 30.9562 21.0081 30.9584L20.9724 30.9648C20.9606 30.9669 20.9487 30.9687 20.9369 30.9707C20.925 30.9726 20.9132 30.9748 20.9013 30.9766C20.8895 30.9784 20.8776 30.9799 20.8657 30.9817L20.8301 30.9866C20.8182 30.9882 20.8064 30.9899 20.7945 30.9913C20.7827 30.9928 20.7708 30.994 20.7589 30.9954C20.747 30.9968 20.7352 30.9982 20.7233 30.9995C20.7115 31.0007 20.6996 31.0018 20.6877 31.0029L20.6521 31.006C20.6403 31.007 20.6284 31.0083 20.6165 31.0092C20.6047 31.0101 20.5928 31.0106 20.5809 31.0114L20.5454 31.0137L20.5098 31.0155C20.4979 31.0161 20.486 31.0165 20.4742 31.0169C20.4623 31.0173 20.4504 31.0179 20.4386 31.0183C20.4267 31.0186 20.4148 31.0187 20.403 31.0189L20.3674 31.0194C20.3564 31.0195 20.3455 31.0198 20.3344 31.0198H20.2962H20.2606H20.225H20.1894H20.1538H20.1183H20.0827H20.0471H20.0115H19.9759H19.9403H19.9047H19.8691H19.8335H19.7979H19.7623H19.7268H19.6912H19.6556H19.62H19.5844H19.5488H19.5132H19.4776H19.442H19.4064H19.3708H19.3352H19.2997H19.264H19.2285H19.1929H19.1573H19.1217H19.0861H19.0505H19.0149H18.9793H18.9437H18.9081H18.8726H18.837H18.8014H18.7658H18.7302H18.6946H18.659H18.6234H18.5878H18.5522H18.5166H18.4811H18.4454H18.4099H18.3743H18.3387H18.3031H18.2675H18.2319H18.1963H18.1607H18.1251H18.0895H18.0539H18.0184H17.9828H17.9472H17.9116H17.876H17.8404H17.8048H17.7692H17.7336H17.698H17.6625H17.6268H17.5913H17.5557H17.5201H17.4845H17.4489H17.4133H17.3777H17.3421H17.3065H17.2709H17.2353H17.1998H17.1642H17.1286H17.093H17.0574H17.0218H16.9862H16.9506H16.915H16.8794H16.8438H16.8082H16.7727H16.7371H16.7015H16.6659H16.6303H16.5947H16.5591H16.5235H16.4879H16.4523H16.4167H16.3812H16.3456H16.31H16.2744H16.2388H16.2032H16.1676H16.132H16.0964H16.0608H16.0252H15.9896H15.9541H15.9184H15.8829H15.8473H15.8117H15.7761H15.7405H15.7049H15.6693H15.6337H15.5981H15.5625H15.527H15.4914H15.4558H15.4202H15.3846H15.349H15.3134H15.2778H15.2422H15.2066H15.171H15.1355H15.0998H15.0643H15.0287H14.9931H14.9166V23.2504C14.9166 23.2504 14.9429 23.2576 14.9931 23.2702L15.0287 23.2791L15.0643 23.2878L15.0998 23.2963L15.1355 23.3047L15.171 23.3129L15.2066 23.3211L15.2422 23.3291L15.2778 23.337L15.3134 23.3448L15.349 23.3525L15.3846 23.3601L15.4202 23.3676L15.4558 23.375L15.4914 23.3822L15.527 23.3894L15.5625 23.3965L15.5981 23.4035L15.6337 23.4104L15.6693 23.4173L15.7049 23.4241L15.7405 23.4307L15.7761 23.4373L15.8117 23.4438L15.8473 23.4502L15.8829 23.4565L15.9184 23.4627L15.9541 23.4689L15.9896 23.4749L16.0252 23.4809L16.0608 23.4868L16.0964 23.4927L16.132 23.4984L16.1676 23.5041L16.2032 23.5097L16.2388 23.5152L16.2744 23.5207L16.31 23.526L16.3456 23.5313L16.3812 23.5365L16.4167 23.5416L16.4523 23.5466L16.4879 23.5516L16.5235 23.5565L16.5591 23.5613L16.5947 23.566L16.6303 23.5707L16.6659 23.5753L16.7015 23.5798L16.7371 23.5842L16.7727 23.5886L16.8082 23.5929L16.8438 23.597L16.8794 23.6012L16.915 23.6052L16.9506 23.6092L16.9862 23.6131L17.0218 23.6169L17.0574 23.6207L17.093 23.6243L17.1286 23.628L17.1642 23.6314L17.1998 23.6349L17.2353 23.6383L17.2709 23.6415L17.3065 23.6448L17.3421 23.6479L17.3777 23.6509L17.4133 23.6539L17.4489 23.6568L17.4845 23.6597L17.5201 23.6623L17.5557 23.6651L17.5913 23.6676L17.6268 23.6701L17.6625 23.6726L17.698 23.6749L17.7336 23.6772L17.7692 23.6794L17.8048 23.6815L17.8404 23.6836L17.876 23.6855L17.9116 23.6874L17.9472 23.6892L17.9828 23.6909L18.0184 23.6926L18.0539 23.6941L18.0895 23.6956L18.1251 23.6971L18.1607 23.6983L18.1963 23.6996L18.2319 23.7008L18.2675 23.7018L18.3031 23.7029L18.3387 23.7037L18.3743 23.7045L18.4099 23.7054L18.4454 23.706L18.4811 23.7065L18.5166 23.7071L18.5522 23.7074L18.5878 23.7078L18.6234 23.7081L18.659 23.7082L18.6946 23.7083L18.7302 23.7082L18.7658 23.708L18.8014 23.7078L18.837 23.7076L18.8726 23.7074L18.9081 23.7067L18.9437 23.7061L18.9793 23.7054L19.0149 23.7048L19.0505 23.7039L19.0861 23.7028L19.1217 23.7017L19.1573 23.7006L19.1929 23.6994L19.2285 23.6978L19.264 23.6963L19.2997 23.6947L19.3352 23.6931L19.3708 23.6912L19.4064 23.6891L19.442 23.6871L19.4776 23.685L19.5132 23.6826L19.5488 23.6801L19.5844 23.6775L19.62 23.675L19.6556 23.6721L19.6912 23.6691L19.7268 23.666L19.7623 23.6629L19.7979 23.6596L19.8335 23.6559L19.8691 23.6523L19.9047 23.6487L19.9403 23.6448L19.9759 23.6406L20.0115 23.6364L20.0471 23.6323L20.0827 23.6276L20.1183 23.6229L20.1538 23.6181L20.1894 23.6133C20.2014 23.6116 20.2131 23.6097 20.225 23.608L20.2606 23.6026L20.2962 23.5973L20.3318 23.5916C20.3438 23.5897 20.3555 23.5876 20.3674 23.5856L20.403 23.5797C20.4148 23.5777 20.4269 23.5758 20.4386 23.5737C20.4506 23.5716 20.4622 23.5693 20.4742 23.5671L20.5098 23.5605L20.5454 23.5538L20.5809 23.5469C20.5929 23.5445 20.6046 23.542 20.6165 23.5396L20.6521 23.5322L20.6877 23.5248C20.6997 23.5223 20.7114 23.5195 20.7233 23.5168L20.7589 23.5088C20.7707 23.5061 20.7828 23.5036 20.7945 23.5008C20.8065 23.498 20.8182 23.495 20.8301 23.4921L20.8657 23.4834C20.8775 23.4805 20.8896 23.4776 20.9013 23.4747C20.9133 23.4716 20.925 23.4684 20.9369 23.4653L20.9724 23.4558C20.9843 23.4527 20.9963 23.4496 21.0081 23.4463C21.02 23.443 21.0318 23.4396 21.0436 23.4363L21.0792 23.426C21.0911 23.4225 21.1031 23.4191 21.1148 23.4156L21.1504 23.4048L21.186 23.3936C21.1978 23.3899 21.2099 23.3863 21.2216 23.3825L21.2572 23.3706L21.2928 23.3586C21.3046 23.3546 21.3167 23.3507 21.3284 23.3466C21.3404 23.3423 21.3521 23.338 21.364 23.3337L21.3995 23.3207C21.4114 23.3163 21.4234 23.312 21.4351 23.3076C21.4472 23.303 21.4589 23.2983 21.4707 23.2937C21.4826 23.2891 21.4946 23.2845 21.5063 23.2798L21.5419 23.2653L21.5775 23.2504C21.5893 23.2454 21.6014 23.2406 21.6131 23.2355C21.6251 23.2303 21.6368 23.2248 21.6487 23.2195L21.6843 23.2036L21.7199 23.187C21.7318 23.1814 21.7436 23.1757 21.7555 23.1699C21.7673 23.1642 21.7794 23.1586 21.791 23.1527C21.8031 23.1467 21.8148 23.1405 21.8267 23.1345C21.8385 23.1284 21.8505 23.1224 21.8622 23.1162C21.8743 23.1099 21.886 23.1034 21.8978 23.097C21.9098 23.0905 21.9217 23.0841 21.9334 23.0775C21.9454 23.0708 21.9572 23.0641 21.969 23.0574C21.981 23.0505 21.9928 23.0435 22.0046 23.0365C22.0165 23.0295 22.0285 23.0224 22.0402 23.0153C22.0522 23.0079 22.064 23.0005 22.0758 22.9931C22.0877 22.9856 22.0997 22.9781 22.1114 22.9706C22.1234 22.9628 22.1351 22.9548 22.147 22.9469C22.1589 22.9389 22.1709 22.931 22.1826 22.9229C22.1946 22.9146 22.2063 22.9061 22.2182 22.8977C22.2301 22.8892 22.2421 22.8807 22.2537 22.8721C22.2658 22.8632 22.2775 22.8542 22.2893 22.8452C22.3013 22.8361 22.3132 22.8269 22.3249 22.8177C22.3369 22.8082 22.3488 22.7986 22.3605 22.789C22.3725 22.7792 22.3844 22.7693 22.3961 22.7593C22.4081 22.7492 22.42 22.7391 22.4317 22.7288C22.4438 22.7182 22.4555 22.7073 22.4673 22.6966C22.4792 22.6857 22.4912 22.6748 22.5029 22.6637C22.515 22.6523 22.5268 22.6407 22.5385 22.629C22.5505 22.6171 22.5624 22.6051 22.5741 22.593C22.586 22.5807 22.598 22.5684 22.6096 22.5559C22.6218 22.5429 22.6335 22.5297 22.6453 22.5164C22.6573 22.5028 22.6692 22.4891 22.6808 22.4753C22.6929 22.4611 22.7048 22.4469 22.7164 22.4325C22.7285 22.4176 22.7404 22.4026 22.752 22.3875C22.7642 22.3717 22.7759 22.3557 22.7876 22.3396C22.7998 22.3229 22.8116 22.3061 22.8232 22.2892C22.8354 22.2716 22.8472 22.2538 22.8588 22.2359C22.8709 22.2171 22.8828 22.1982 22.8944 22.1792C22.9066 22.1591 22.9185 22.1389 22.93 22.1184C22.9422 22.0968 22.9541 22.0751 22.9656 22.0531C22.9779 22.0296 22.9897 22.006 23.0012 21.9822C23.0135 21.9566 23.0253 21.9308 23.0368 21.9048C23.0491 21.8766 23.061 21.8481 23.0724 21.8194C23.0848 21.7878 23.0967 21.7559 23.1079 21.7237C23.1207 21.6872 23.1324 21.6503 23.1435 21.6131C23.1565 21.5696 23.1683 21.5257 23.1791 21.4814C23.1925 21.4264 23.2045 21.3708 23.2147 21.3145C23.23 21.2308 23.2417 21.1457 23.2503 21.0596C23.2623 20.9394 23.2681 20.817 23.2681 20.6928V16.4153H23.2147H23.1791H23.1435H23.1079H23.0724H23.0368H23.0012H22.9656H22.93H22.8944H22.8588H22.8232H22.7876H22.752H22.7164H22.6808H22.6453H22.6096H22.5741H22.5385H22.5029H22.4673H22.4317H22.3961H22.3605H22.3249H22.2893H22.2537H22.2182H22.1826H22.147H22.1114H22.0758H22.0402H22.0046H21.969H21.9334H21.8978H21.8622H21.8267H21.791H21.7555H21.7199H21.6843H21.6487H21.6131H21.5775H21.5419H21.5063H21.4707H21.4351H21.3995H21.364H21.3284H21.2928H21.2572H21.2216H21.186H21.1504H21.1148H21.0792H21.0436H21.0081H20.9724H20.9369H20.9013H20.8657H20.8301H20.7945H20.7589H20.7233H20.6877H20.6521H20.6165H20.5809H20.5454H20.5098H20.4742H20.4386H20.403H20.3674H20.3318H20.2962H20.2606H20.225H20.1894H20.1538H20.1183L20.0913 20.6928C20.0913 20.7597 20.0884 20.8256 20.0827 20.8902C20.0754 20.9726 20.0635 21.0528 20.0471 21.1308C20.0369 21.179 20.0251 21.2263 20.0115 21.2728C20.0007 21.3097 19.9889 21.3461 19.9759 21.3819C19.9648 21.4124 19.9529 21.4423 19.9403 21.4719C19.929 21.4983 19.9172 21.5242 19.9047 21.5498C19.8933 21.5731 19.8815 21.5961 19.8691 21.6188C19.8577 21.6396 19.8458 21.66 19.8335 21.6802C19.822 21.6992 19.8102 21.718 19.7979 21.7365C19.7864 21.7539 19.7745 21.771 19.7623 21.7878C19.7508 21.8039 19.739 21.8199 19.7268 21.8355C19.7152 21.8504 19.7033 21.865 19.6912 21.8794C19.6795 21.8932 19.6677 21.9069 19.6556 21.9203C19.6439 21.9333 19.6321 21.9462 19.62 21.9587C19.6083 21.9709 19.5965 21.9829 19.5844 21.9948C19.5727 22.0062 19.5609 22.0175 19.5488 22.0286C19.5371 22.0393 19.5252 22.0498 19.5132 22.0603C19.5015 22.0704 19.4896 22.0804 19.4776 22.0902C19.4659 22.0998 19.454 22.1092 19.442 22.1185C19.4303 22.1275 19.4184 22.1364 19.4064 22.1452C19.3947 22.1537 19.3828 22.1622 19.3708 22.1705C19.3591 22.1786 19.3473 22.1865 19.3352 22.1944C19.3235 22.2021 19.3117 22.2096 19.2997 22.2171C19.2879 22.2243 19.276 22.2315 19.264 22.2385C19.2523 22.2454 19.2404 22.2521 19.2285 22.2587C19.2167 22.2653 19.2049 22.2716 19.1929 22.2779C19.1811 22.2841 19.1693 22.2902 19.1573 22.2961C19.1455 22.3019 19.1337 22.3077 19.1217 22.3134C19.1099 22.3189 19.0981 22.3244 19.0861 22.3298C19.0743 22.335 19.0625 22.3402 19.0505 22.3452C19.0388 22.3502 19.0269 22.355 19.0149 22.3597C19.0032 22.3644 18.9913 22.369 18.9793 22.3735C18.9675 22.3779 18.9557 22.3822 18.9437 22.3865C18.9319 22.3907 18.9201 22.3948 18.9081 22.3988C18.8964 22.4027 18.8845 22.4066 18.8726 22.4103C18.8608 22.414 18.8489 22.4175 18.837 22.421C18.8252 22.4245 18.8133 22.4279 18.8014 22.4312C18.7895 22.4345 18.7777 22.4377 18.7658 22.4408C18.754 22.4438 18.7421 22.4468 18.7302 22.4496C18.7184 22.4524 18.7065 22.4552 18.6946 22.4578C18.6828 22.4604 18.671 22.463 18.659 22.4655C18.6472 22.468 18.6354 22.4703 18.6234 22.4726C18.6116 22.4749 18.5997 22.477 18.5878 22.479C18.576 22.4811 18.5642 22.4832 18.5522 22.4851L18.5166 22.4905C18.5048 22.4922 18.493 22.4938 18.4811 22.4954C18.4692 22.4969 18.4574 22.4985 18.4454 22.4998L18.4099 22.5038C18.3981 22.505 18.3862 22.5061 18.3743 22.5072C18.3624 22.5082 18.3506 22.5093 18.3387 22.5102C18.3269 22.5111 18.315 22.5119 18.3031 22.5127C18.2913 22.5135 18.2794 22.5141 18.2675 22.5147C18.2556 22.5154 18.2438 22.516 18.2319 22.5164C18.2201 22.5169 18.2082 22.5172 18.1963 22.5175L18.1607 22.5184C18.1489 22.5186 18.137 22.5186 18.1251 22.5187L18.0895 22.5187L18.0539 22.5185L18.0184 22.518L17.9828 22.5173L17.9472 22.5163L17.9116 22.5152L17.876 22.5137L17.8404 22.5121L17.8048 22.5103L17.7692 22.5082L17.7336 22.5059L17.698 22.5034L17.6625 22.5006L17.6268 22.4976L17.5913 22.4944L17.5557 22.491L17.5201 22.4874L17.4845 22.4835L17.4489 22.4795L17.4133 22.4752L17.3777 22.4707L17.3421 22.466L17.3065 22.4611L17.2709 22.4559L17.2353 22.4506L17.1998 22.445L17.1642 22.4393L17.1286 22.4333L17.093 22.4271L17.0574 22.4207L17.0218 22.4141L16.9862 22.4074L16.9506 22.4004L16.915 22.3931L16.8794 22.3857L16.8438 22.3782L16.8082 22.3703L16.7727 22.3623L16.7371 22.3541L16.7015 22.3457L16.6659 22.3371L16.6303 22.3283L16.5947 22.3194L16.5591 22.3101L16.5235 22.3008L16.4879 22.2912L16.4523 22.2815L16.4167 22.2715L16.3812 22.2614L16.3456 22.2511L16.31 22.2405L16.2744 22.2298L16.2388 22.219L16.2032 22.2079L16.1676 22.1966L16.132 22.1852L16.0964 22.1736L16.0608 22.1618L16.0252 22.1498L15.9896 22.1376L15.9541 22.1253L15.9184 22.1128L15.8829 22.1001L15.8473 22.0873L15.8117 22.0742L15.7761 22.061L15.7405 22.0476L15.7049 22.0341L15.6693 22.0203L15.6337 22.0064L15.5981 21.9924L15.5625 21.9781L15.527 21.9637L15.4914 21.9492L15.4558 21.9344L15.4202 21.9195L15.3846 21.9045L15.349 21.8892L15.3134 21.8739L15.2778 21.8583L15.2422 21.8426L15.2066 21.8267L15.171 21.8107L15.1355 21.7945L15.0998 21.7782L15.0643 21.7617L15.0287 21.745L14.9931 21.7283C14.9676 21.7161 14.9421 21.704 14.9166 21.6917Z" fill="#006CB9"/>
<path fill-rule="evenodd" clip-rule="evenodd" d="M25.2129 17.35C25.1869 17.3709 25.1614 17.392 25.1365 17.4134V12.5868C25.1365 12.3302 25.1629 12.0796 25.2129 11.8377C25.2237 11.7858 25.2356 11.7343 25.2485 11.6832C25.2596 11.6393 25.2715 11.5958 25.2841 11.5526C25.2953 11.5141 25.3072 11.4759 25.3197 11.438C25.3311 11.4033 25.3429 11.3688 25.3553 11.3346C25.3667 11.3028 25.3786 11.2713 25.3909 11.24C25.4024 11.2107 25.4142 11.1816 25.4265 11.1527C25.438 11.1255 25.4499 11.0984 25.462 11.0715C25.4736 11.0459 25.4855 11.0205 25.4977 10.9953C25.5092 10.9711 25.5211 10.9473 25.5332 10.9234C25.5448 10.9005 25.5568 10.8778 25.5688 10.8552C25.5805 10.8334 25.5924 10.8118 25.6044 10.7902C25.6161 10.7694 25.6279 10.7486 25.64 10.728C25.6517 10.708 25.6635 10.6881 25.6756 10.6684C25.6873 10.6493 25.6992 10.6303 25.7112 10.6115C25.7229 10.5931 25.7348 10.575 25.7468 10.5569C25.7585 10.5392 25.7704 10.5216 25.7824 10.5041C25.7942 10.4869 25.8059 10.4697 25.818 10.4528C25.8297 10.4364 25.8416 10.4203 25.8536 10.4041C25.8653 10.3882 25.8772 10.3724 25.8892 10.3566C25.901 10.3412 25.9127 10.3256 25.9248 10.3104C25.9364 10.2955 25.9485 10.2809 25.9604 10.2663C25.9721 10.2518 25.984 10.2373 25.9959 10.2231C26.0077 10.209 26.0196 10.1949 26.0316 10.181C26.0433 10.1675 26.0552 10.1541 26.0671 10.1407C26.0789 10.1274 26.0907 10.1141 26.1027 10.101C26.1145 10.0881 26.1264 10.0755 26.1383 10.0628C26.1501 10.0503 26.1619 10.0379 26.1739 10.0255C26.1857 10.0134 26.1975 10.0012 26.2095 9.98914C26.2212 9.97735 26.2332 9.9657 26.2451 9.95405C26.2569 9.94246 26.2687 9.93078 26.2807 9.91933C26.2924 9.90816 26.3044 9.89724 26.3163 9.88621C26.3281 9.87521 26.3399 9.86418 26.3519 9.85336C26.3636 9.84274 26.3756 9.8323 26.3874 9.82183C26.3993 9.81139 26.4111 9.80098 26.4231 9.79072C26.4348 9.7806 26.4467 9.77066 26.4586 9.76069C26.4705 9.75081 26.4823 9.74093 26.4942 9.73117C26.506 9.72156 26.5179 9.71203 26.5298 9.70257C26.5416 9.69316 26.5535 9.68381 26.5654 9.67455C26.5772 9.6654 26.5891 9.65635 26.601 9.64733C26.6128 9.63839 26.6247 9.62948 26.6366 9.62069C26.6484 9.61196 26.6603 9.60335 26.6722 9.59477C26.684 9.58628 26.6959 9.57778 26.7078 9.56941C26.7196 9.56112 26.7315 9.55295 26.7434 9.54478C26.7552 9.53667 26.7671 9.52859 26.779 9.52063C26.7908 9.51275 26.8027 9.505 26.8146 9.49724C26.8264 9.48951 26.8382 9.48179 26.8502 9.47421C26.862 9.46672 26.8739 9.4594 26.8858 9.45203C26.8976 9.44468 26.9094 9.43725 26.9213 9.43006C26.9331 9.42292 26.9451 9.41602 26.957 9.40903C26.9688 9.40204 26.9806 9.3949 26.9925 9.38806C27.0043 9.38131 27.0163 9.37482 27.0281 9.36818C27.04 9.36155 27.0518 9.35485 27.0637 9.34836C27.0755 9.34193 27.0874 9.33574 27.0993 9.32943C27.1112 9.32315 27.123 9.31684 27.1349 9.31067L27.1705 9.29259L27.2061 9.27493C27.2179 9.26915 27.2298 9.26331 27.2417 9.25764C27.2535 9.25201 27.2654 9.24656 27.2773 9.24104C27.2892 9.23555 27.3009 9.22989 27.3129 9.22452C27.3247 9.21919 27.3366 9.21417 27.3485 9.20898C27.3603 9.20379 27.3722 9.19851 27.3841 9.19344C27.3959 9.18843 27.4078 9.18356 27.4196 9.17866L27.4553 9.16415C27.4671 9.15941 27.4789 9.15466 27.4908 9.15003C27.5027 9.14543 27.5146 9.141 27.5264 9.13652C27.5383 9.13204 27.5501 9.12741 27.562 9.12304C27.5738 9.11874 27.5858 9.11472 27.5976 9.11054C27.6095 9.10635 27.6213 9.1021 27.6332 9.09803C27.645 9.09396 27.6569 9.09007 27.6688 9.08615L27.7044 9.07461C27.7163 9.07084 27.7281 9.06698 27.74 9.06329C27.7518 9.05966 27.7637 9.05624 27.7756 9.05273C27.7874 9.04919 27.7993 9.04556 27.8112 9.04214C27.823 9.03875 27.8349 9.0356 27.8468 9.03232L27.8824 9.02268C27.8942 9.01955 27.9061 9.01637 27.918 9.01336C27.9298 9.01038 27.9417 9.00758 27.9535 9.00469C27.9654 9.0018 27.9772 8.99879 27.9892 8.99602C28.001 8.99328 28.0129 8.99071 28.0247 8.98808L28.0603 8.98036C28.0722 8.97785 28.084 8.97526 28.0959 8.97287C28.1077 8.97048 28.1197 8.96832 28.1315 8.96605C28.1434 8.96378 28.1552 8.96139 28.1671 8.95924L28.2027 8.95311L28.2383 8.94724C28.2502 8.94532 28.262 8.94329 28.2739 8.94149C28.2857 8.93969 28.2976 8.93818 28.3095 8.9365C28.3213 8.93485 28.3332 8.93311 28.3451 8.93155L28.3807 8.92709L28.4163 8.92302C28.4281 8.9217 28.44 8.92016 28.4519 8.91895C28.4637 8.91775 28.4756 8.91686 28.4875 8.91577L28.5231 8.91264C28.5349 8.91164 28.5468 8.91067 28.5586 8.90981C28.5705 8.90896 28.5824 8.90828 28.5942 8.90754C28.6061 8.9068 28.6179 8.90595 28.6298 8.9053C28.6417 8.90465 28.6536 8.90421 28.6654 8.90368L28.701 8.90232C28.7129 8.90191 28.7247 8.90129 28.7366 8.90099C28.7485 8.9007 28.7604 8.90073 28.7722 8.90055C28.7841 8.90037 28.7959 8.90017 28.8078 8.90011L28.8235 8.8999H28.8434H28.879H28.9146H28.9502H28.9858H29.0214H29.057H29.0925H29.1282H29.1637H29.1993H29.2349H29.2705H29.3061H29.3417H29.3773H29.4129H29.4485H29.4841H29.5197H29.5553H29.5908H29.6265H29.662H29.6976H29.7333H29.7688H29.8044H29.84H29.8756H29.9112H29.9468H29.9824H30.018H30.0536H30.0892H30.1247H30.1604H30.1959H30.2315H30.2671H30.3027H30.3383H30.3739H30.4095H30.4451H30.4807H30.5163H30.5519H30.5875H30.6231H30.6587H30.6943H30.7298H30.7654H30.801H30.8366H30.8722H30.9078H30.9434H30.979H31.0146H31.0502H31.0858H31.1214H31.157H31.1926H31.2282H31.2637H31.2994H31.3349H31.3705H31.4061H31.4417H31.4773H31.5129H31.5485H31.5841H31.6197H31.6553H31.6909H31.7265H31.762H31.7977H31.8332H31.8688H31.9044H31.94H31.9756H32.0112H32.0468H32.0824H32.118H32.1536H32.1892H32.2248H32.2604H32.2959H32.3316H32.3671H32.4027H32.4383H32.4739H32.5095H32.5451H32.5807H32.6163H32.6519H32.6875H32.7231H32.7587H32.7943H32.8299H32.8655H32.901H32.9366H32.9722H33.0078H33.0434H33.079H33.1146H33.1502H33.1858H33.2214H33.257H33.2926H33.3282H33.3638H33.3994H33.4349H33.4706H33.5061H33.5417H33.5773H33.6129H33.6485H33.6841H33.7197H33.7553H33.7909H33.8265H33.8621H33.8977H33.9332H33.9688H34.0044H34.04H34.0756H34.1112H34.1468H34.1824H34.218H34.2482V27.3332C34.2482 27.4935 34.2379 27.6513 34.218 27.8062C34.2084 27.8808 34.1964 27.9546 34.1824 28.0277C34.1718 28.0833 34.1599 28.1386 34.1468 28.1933C34.1358 28.2394 34.124 28.2852 34.1112 28.3306C34.1 28.3705 34.0881 28.41 34.0756 28.4493C34.0643 28.4849 34.0524 28.5201 34.04 28.5552C34.0286 28.5877 34.0167 28.62 34.0044 28.6521C33.9929 28.682 33.9811 28.7117 33.9688 28.7412C33.9573 28.7691 33.9454 28.7967 33.9332 28.8242C33.9217 28.8503 33.9098 28.8762 33.8977 28.9019C33.886 28.9265 33.8742 28.951 33.8621 28.9752C33.8504 28.9985 33.8386 29.0217 33.8265 29.0447C33.8148 29.0668 33.803 29.0889 33.7909 29.1108C33.7792 29.132 33.7674 29.153 33.7553 29.174C33.7436 29.1941 33.7317 29.2141 33.7197 29.234C33.708 29.2533 33.6961 29.2724 33.6841 29.2915C33.6724 29.3101 33.6605 29.3286 33.6485 29.3469C33.6368 29.3649 33.625 29.3829 33.6129 29.4006C33.6012 29.4178 33.5893 29.4348 33.5773 29.4518C33.5656 29.4684 33.5537 29.4849 33.5417 29.5013C33.53 29.5175 33.5181 29.5336 33.5061 29.5495C33.4944 29.565 33.4825 29.5804 33.4706 29.5958C33.4588 29.6108 33.4469 29.6257 33.4349 29.6406C33.4232 29.6552 33.4114 29.6698 33.3994 29.6843C33.3876 29.6984 33.3757 29.7124 33.3638 29.7264C33.352 29.7401 33.3401 29.7537 33.3282 29.7673C33.3164 29.7807 33.3046 29.7941 33.2926 29.8073C33.2808 29.8202 33.2689 29.8329 33.257 29.8457C33.2452 29.8584 33.2334 29.8711 33.2214 29.8836C33.2096 29.8958 33.1977 29.9078 33.1858 29.9199C33.174 29.9318 33.1622 29.9437 33.1502 29.9555C33.1384 29.9672 33.1266 29.9787 33.1146 29.9902C33.1028 30.0015 33.0909 30.0127 33.079 30.0238C33.0672 30.0349 33.0554 30.046 33.0434 30.0569C33.0317 30.0676 33.0197 30.0781 33.0078 30.0887C32.996 30.0992 32.9842 30.1098 32.9722 30.1202C32.9605 30.1304 32.9485 30.1403 32.9366 30.1503C32.9248 30.1603 32.913 30.1704 32.901 30.1802C32.8893 30.1898 32.8773 30.1993 32.8655 30.2088C32.8536 30.2183 32.8418 30.2279 32.8299 30.2372C32.8181 30.2464 32.8062 30.2554 32.7943 30.2644C32.7824 30.2735 32.7706 30.2825 32.7587 30.2914C32.7469 30.3002 32.735 30.3088 32.7231 30.3174C32.7112 30.326 32.6994 30.3347 32.6875 30.3431C32.6757 30.3514 32.6638 30.3595 32.6519 30.3677C32.64 30.3759 32.6283 30.3842 32.6163 30.3923C32.6045 30.4002 32.5926 30.4079 32.5807 30.4156C32.5689 30.4234 32.5571 30.4314 32.5451 30.439C32.5333 30.4465 32.5214 30.4538 32.5095 30.4612C32.4977 30.4686 32.4859 30.4761 32.4739 30.4834C32.4621 30.4905 32.4502 30.4975 32.4383 30.5045C32.4265 30.5115 32.4147 30.5186 32.4027 30.5255C32.3909 30.5323 32.379 30.539 32.3671 30.5457L32.3316 30.5655L32.2959 30.5848L32.2604 30.6035C32.2485 30.6097 32.2367 30.6159 32.2248 30.6219C32.213 30.6279 32.2011 30.6337 32.1892 30.6396C32.1773 30.6455 32.1655 30.6515 32.1536 30.6572C32.1418 30.6628 32.1298 30.6682 32.118 30.6738C32.1061 30.6793 32.0943 30.685 32.0824 30.6904C32.0706 30.6958 32.0586 30.7009 32.0468 30.7062L32.0112 30.7217L31.9756 30.7368L31.94 30.7513C31.9281 30.7561 31.9163 30.761 31.9044 30.7657C31.8926 30.7703 31.8807 30.7746 31.8688 30.7792C31.857 30.7837 31.8452 30.7883 31.8332 30.7927C31.8214 30.797 31.8095 30.8012 31.7977 30.8054L31.762 30.818L31.7265 30.8301C31.7146 30.8341 31.7027 30.8378 31.6909 30.8417C31.679 30.8455 31.6672 30.8495 31.6553 30.8532C31.6435 30.8569 31.6315 30.8603 31.6197 30.8638L31.5841 30.8744L31.5485 30.8845C31.5367 30.8878 31.5248 30.891 31.5129 30.8941C31.501 30.8973 31.4893 30.9007 31.4773 30.9037C31.4655 30.9068 31.4536 30.9095 31.4417 30.9124C31.4299 30.9153 31.418 30.9183 31.4061 30.9211L31.3705 30.9293L31.3349 30.937C31.3231 30.9395 31.3113 30.9423 31.2994 30.9447C31.2875 30.9472 31.2756 30.9493 31.2637 30.9516L31.2282 30.9584L31.1926 30.9648C31.1807 30.9668 31.1689 30.9687 31.157 30.9707C31.1451 30.9726 31.1333 30.9747 31.1214 30.9765C31.1095 30.9784 31.0976 30.9799 31.0858 30.9816L31.0502 30.9866C31.0383 30.9882 31.0265 30.9898 31.0146 30.9913C31.0028 30.9928 30.9909 30.994 30.979 30.9954C30.9671 30.9967 30.9553 30.9982 30.9434 30.9994C30.9316 31.0007 30.9197 31.0017 30.9078 31.0029L30.8722 31.006C30.8603 31.007 30.8485 31.0083 30.8366 31.0091C30.8248 31.01 30.8129 31.0106 30.801 31.0114L30.7654 31.0137L30.7298 31.0155C30.718 31.0161 30.7061 31.0164 30.6943 31.0169C30.6824 31.0173 30.6705 31.0179 30.6587 31.0182C30.6468 31.0186 30.635 31.0187 30.6231 31.0189L30.5875 31.0194C30.5764 31.0195 30.5654 31.0198 30.5542 31.0198H30.5519H30.5163H30.4807H30.4451H30.4095H30.3739H30.3383H30.3027H30.2671H30.2315H30.1959H30.1604H30.1247H30.0892H30.0536H30.018H29.9824H29.9468H29.9112H29.8756H29.84H29.8044H29.7688H29.7333H29.6976H29.662H29.6265H29.5908H29.5553H29.5197H29.4841H29.4485H29.4129H29.3773H29.3417H29.3061H29.2705H29.2349H29.1993H29.1637H29.1282H29.0925H29.057H29.0214H28.9858H28.9502H28.9146H28.879H28.8434H28.8078H28.7722H28.7366H28.701H28.6654H28.6298H28.5942H28.5586H28.5231H28.4875H28.4519H28.4163H28.3807H28.3451H28.3095H28.2739H28.2383H28.2027H28.1671H28.1315H28.0959H28.0603H28.0247H27.9892H27.9535H27.918H27.8824H27.8468H27.8112H27.7756H27.74H27.7044H27.6688H27.6332H27.5976H27.562H27.5264H27.4908H27.4553H27.4196H27.3841H27.3485H27.3129H27.2773H27.2417H27.2061H27.1705H27.1349H27.0993H27.0637H27.0281H26.9925H26.957H26.9213H26.8858H26.8502H26.8146H26.779H26.7434H26.7078H26.6722H26.6366H26.601H26.5654H26.5298H26.4942H26.4586H26.4231H26.3874H26.3519H26.3163H26.2807H26.2451H26.2095H26.1739H26.1383H26.1027H26.0671H26.0316H25.9959H25.9604H25.9248H25.8892H25.8536H25.818H25.7824H25.7468H25.7112H25.6756H25.64H25.6044H25.5688H25.5332H25.4977H25.462H25.4265H25.3909H25.3553H25.3197H25.2841H25.2485H25.2129H25.1365V22.5078C25.1614 22.5291 25.1869 22.5502 25.2129 22.5712C25.2247 22.5807 25.2365 22.5901 25.2485 22.5995C25.2603 22.6087 25.2721 22.618 25.2841 22.6271C25.2959 22.6362 25.3077 22.6452 25.3197 22.6541C25.3314 22.6629 25.3434 22.6715 25.3553 22.6802C25.367 22.6888 25.3789 22.6973 25.3909 22.7058C25.4027 22.7141 25.4145 22.7225 25.4265 22.7307L25.462 22.7551C25.4738 22.763 25.4857 22.7709 25.4977 22.7787L25.5332 22.8019C25.545 22.8095 25.5569 22.8171 25.5688 22.8246C25.5806 22.832 25.5925 22.8393 25.6044 22.8466L25.64 22.8682C25.6519 22.8753 25.6637 22.8824 25.6756 22.8894C25.6874 22.8963 25.6993 22.9031 25.7112 22.9099L25.7468 22.9301L25.7824 22.9497L25.818 22.969C25.8298 22.9753 25.8416 22.9817 25.8536 22.9879C25.8653 22.9941 25.8773 23.0001 25.8892 23.0062L25.9248 23.0242L25.9604 23.0419L25.9959 23.0591C26.0078 23.0647 26.0196 23.0705 26.0316 23.0761L26.0671 23.0925L26.1027 23.1087L26.1383 23.1244L26.1739 23.1399L26.2095 23.1551L26.2451 23.1699L26.2807 23.1845L26.3163 23.1986L26.3519 23.2127L26.3874 23.2262C26.3993 23.2307 26.4111 23.2352 26.4231 23.2396L26.4586 23.2526C26.4705 23.2569 26.4823 23.2613 26.4942 23.2655C26.506 23.2697 26.518 23.2738 26.5298 23.2779L26.5654 23.2903L26.601 23.3022C26.6129 23.3061 26.6246 23.3101 26.6366 23.314C26.6484 23.3179 26.6603 23.3216 26.6722 23.3254L26.7078 23.3368L26.7434 23.3477L26.779 23.3586L26.8146 23.3691L26.8502 23.3795L26.8858 23.3895L26.9213 23.3995L26.957 23.4091L26.9925 23.4186L27.0281 23.4279L27.0637 23.437L27.0993 23.4459L27.1349 23.4545L27.1705 23.4631L27.2061 23.4713L27.2417 23.4795L27.2773 23.4874L27.3129 23.4951L27.3485 23.5028L27.3841 23.5101L27.4196 23.5174L27.4553 23.5244L27.4908 23.5313L27.5264 23.538L27.562 23.5446L27.5976 23.5511L27.6332 23.5572L27.6688 23.5634L27.7044 23.5693L27.74 23.5751L27.7756 23.5808L27.8112 23.5862L27.8468 23.5916L27.8824 23.5968L27.918 23.6019L27.9535 23.6069L27.9892 23.6116L28.0247 23.6162L28.0603 23.6208L28.0959 23.6251L28.1315 23.6295L28.1671 23.6336L28.2027 23.6375L28.2383 23.6415L28.2739 23.6452L28.3095 23.6488L28.3451 23.6524L28.3807 23.6557L28.4163 23.659L28.4519 23.6622L28.4875 23.6652L28.5231 23.6682L28.5586 23.6709L28.5942 23.6736L28.6298 23.6763L28.6654 23.6787L28.701 23.6811L28.7366 23.6835L28.7722 23.6855L28.8078 23.6876L28.8434 23.6896L28.879 23.6914L28.9146 23.6931L28.9502 23.6949L28.9858 23.6963L29.0214 23.6978L29.057 23.6992L29.0925 23.7004L29.1282 23.7016L29.1637 23.7027L29.1993 23.7036L29.2349 23.7045L29.2705 23.7054L29.3061 23.706L29.3417 23.7066L29.3773 23.7072L29.4129 23.7076L29.4485 23.7079L29.4841 23.7082L29.5197 23.7083L29.5553 23.7084L29.5908 23.7085L29.6265 23.7084L29.662 23.7082L29.6976 23.708L29.7333 23.7077L29.7688 23.7072L29.8044 23.7067L29.84 23.7063L29.8756 23.7055L29.9112 23.7048L29.9468 23.7041L29.9824 23.7032L30.018 23.7022L30.0536 23.7012L30.0892 23.7001L30.1247 23.6989L30.1604 23.6977L30.1959 23.6964L30.2315 23.695L30.2671 23.6935L30.3027 23.692L30.3201 23.6913L30.3383 23.6904L30.3739 23.6887L30.4095 23.6868L30.4451 23.6848L30.4807 23.6827L30.5163 23.6805L30.5519 23.6781L30.5875 23.6757L30.6231 23.6731L30.6587 23.6704L30.6943 23.6676L30.7298 23.6647L30.7654 23.6617L30.801 23.6585L30.8366 23.6553L30.8722 23.652L30.9078 23.6486L30.9434 23.645L30.979 23.6414L31.0146 23.6377L31.0502 23.6339L31.0858 23.6299L31.1214 23.6259L31.157 23.6218L31.1926 23.6176L31.2282 23.6134L31.2637 23.609L31.2994 23.6045L31.3349 23.6L31.3705 23.5954L31.4061 23.5907L31.4417 23.5859L31.4773 23.581L31.5129 23.5761L31.5485 23.5711L31.5841 23.5659L31.6197 23.5608L31.6553 23.5555L31.6909 23.5501L31.7265 23.5447L31.762 23.5392L31.7977 23.5336L31.8332 23.528L31.8688 23.5223L31.9044 23.5165L31.94 23.5106L31.9756 23.5047L32.0112 23.4987L32.0468 23.4926L32.0824 23.4864L32.118 23.4802L32.1536 23.4739L32.1892 23.4675L32.2248 23.4611L32.2604 23.4546L32.2959 23.448L32.3316 23.4414L32.3671 23.4346L32.4027 23.4278L32.4383 23.421L32.4739 23.4141L32.5095 23.4071L32.5451 23.4L32.5807 23.3929L32.6163 23.3857L32.6519 23.3784L32.6875 23.371L32.7231 23.3636L32.7587 23.3562L32.7943 23.3486L32.8299 23.341L32.8655 23.3332L32.901 23.3255L32.9366 23.3176L32.9722 23.3096L33.0078 23.3016L33.0434 23.2935L33.079 23.2852L33.1146 23.2769L33.1502 23.2684L33.1858 23.2599L33.2212 23.2512V21.6917L33.1858 21.7092L33.1502 21.7268L33.1146 21.7442L33.079 21.7614L33.0434 21.7785L33.0078 21.7954L32.9722 21.8121L32.9366 21.8287L32.901 21.845L32.8655 21.8612L32.8299 21.8773L32.7943 21.8931L32.7587 21.9088L32.7231 21.9242L32.6875 21.9395L32.6519 21.9546L32.6163 21.9695L32.5807 21.9843L32.5451 21.9988L32.5095 22.0131L32.4739 22.0273L32.4383 22.0413L32.4027 22.055L32.3671 22.0685L32.3316 22.0819L32.2959 22.095L32.2604 22.108L32.2248 22.1207L32.1892 22.1333L32.1536 22.1457L32.118 22.1578L32.0824 22.1697L32.0468 22.1815L32.0112 22.193L31.9756 22.2044L31.94 22.2155L31.9044 22.2264L31.8688 22.2372L31.8332 22.2477L31.7977 22.2581L31.762 22.2682L31.7265 22.2781L31.6909 22.2878L31.6553 22.2973L31.6197 22.3067L31.5841 22.3158L31.5485 22.3247L31.5129 22.3334L31.4773 22.3419L31.4417 22.3503L31.4061 22.3583L31.3705 22.3663L31.3349 22.374L31.2994 22.3815L31.2637 22.3888L31.2282 22.3959L31.1926 22.4029L31.157 22.4096L31.1214 22.4161L31.0858 22.4225L31.0502 22.4286L31.0146 22.4345L30.979 22.4403L30.9434 22.4459L30.9078 22.4512L30.8722 22.4564L30.8366 22.4614L30.801 22.4662L30.7654 22.4707L30.7298 22.4752L30.6943 22.4794L30.6587 22.4834L30.6231 22.4872L30.5875 22.4909L30.5519 22.4944L30.5163 22.4977L30.4807 22.5008L30.4451 22.5037L30.4235 22.5054L30.4095 22.5063L30.3739 22.5087L30.3383 22.5111L30.3027 22.513L30.2671 22.5148L30.2315 22.5164L30.1959 22.5176L30.1604 22.5187L30.1247 22.5195L30.0892 22.52L30.0536 22.5205C30.0416 22.5205 30.0299 22.5204 30.018 22.5204L29.9824 22.5203L29.9468 22.5197L29.9112 22.519L29.8756 22.518C29.8637 22.5177 29.8519 22.5171 29.84 22.5166C29.8282 22.5161 29.8162 22.5157 29.8044 22.5151L29.7688 22.5132L29.7333 22.5111L29.6976 22.5086L29.662 22.5058C29.6502 22.5048 29.6382 22.504 29.6265 22.5029C29.6145 22.5018 29.6027 22.5005 29.5908 22.4993L29.5553 22.4957L29.5197 22.4916L29.4841 22.4873L29.4485 22.4826L29.4129 22.4776C29.401 22.4758 29.3891 22.4742 29.3773 22.4723C29.3654 22.4704 29.3535 22.4684 29.3417 22.4664C29.3298 22.4645 29.3179 22.4626 29.3061 22.4605C29.2941 22.4584 29.2824 22.4561 29.2705 22.4539C29.2587 22.4517 29.2467 22.4496 29.2349 22.4472C29.223 22.4449 29.2112 22.4423 29.1993 22.4398C29.1875 22.4373 29.1755 22.4349 29.1637 22.4323C29.1518 22.4297 29.14 22.4269 29.1282 22.4242L29.0925 22.4158C29.0806 22.4129 29.0688 22.4099 29.057 22.4069C29.0451 22.4038 29.0331 22.4008 29.0214 22.3977C29.0094 22.3945 28.9976 22.3911 28.9858 22.3878C28.9739 22.3845 28.962 22.3812 28.9502 22.3777C28.9382 22.3742 28.9264 22.3705 28.9146 22.3669C28.9027 22.3633 28.8908 22.3596 28.879 22.3558C28.8671 22.352 28.8552 22.348 28.8434 22.3441C28.8315 22.3401 28.8196 22.3361 28.8078 22.332C28.7959 22.3279 28.7841 22.3235 28.7722 22.3192C28.7603 22.3149 28.7484 22.3106 28.7366 22.3062C28.7247 22.3016 28.7129 22.2969 28.701 22.2922C28.6891 22.2875 28.6772 22.2829 28.6654 22.2781C28.6534 22.2732 28.6417 22.268 28.6298 22.2629C28.6179 22.2578 28.606 22.2528 28.5942 22.2475C28.5823 22.2422 28.5705 22.2367 28.5586 22.2312C28.5467 22.2256 28.5348 22.2201 28.5231 22.2144C28.5111 22.2086 28.4992 22.2028 28.4875 22.1968C28.4755 22.1908 28.4637 22.1847 28.4519 22.1786C28.44 22.1723 28.428 22.1662 28.4163 22.1598C28.4043 22.1532 28.3925 22.1465 28.3807 22.1398C28.3688 22.1331 28.3568 22.1264 28.3451 22.1194C28.3331 22.1124 28.3213 22.1052 28.3095 22.098C28.2975 22.0907 28.2857 22.0832 28.2739 22.0757C28.262 22.0681 28.25 22.0606 28.2383 22.0528C28.2263 22.0448 28.2145 22.0366 28.2027 22.0284C28.1908 22.0202 28.1789 22.0118 28.1671 22.0033C28.1552 21.9948 28.1432 21.9862 28.1315 21.9774C28.1195 21.9684 28.1077 21.9591 28.0959 21.9499C28.084 21.9405 28.0721 21.9311 28.0603 21.9215C28.0484 21.9117 28.0364 21.902 28.0247 21.892C28.0127 21.8818 28.0009 21.8713 27.9892 21.8608C27.9771 21.8501 27.9653 21.8392 27.9535 21.8283C27.9416 21.8171 27.9297 21.8058 27.918 21.7944C27.906 21.7827 27.894 21.7711 27.8824 21.7591C27.8703 21.7468 27.8585 21.7342 27.8468 21.7216C27.8347 21.7086 27.8229 21.6955 27.8112 21.6823C27.7991 21.6686 27.7873 21.6549 27.7756 21.6409C27.7636 21.6266 27.7517 21.6121 27.74 21.5975C27.728 21.5823 27.716 21.567 27.7044 21.5515C27.6923 21.5354 27.6804 21.5192 27.6688 21.5028C27.6567 21.4857 27.6448 21.4685 27.6332 21.451C27.6211 21.4327 27.6092 21.4143 27.5976 21.3956C27.5855 21.376 27.5736 21.3562 27.562 21.3361C27.5498 21.315 27.538 21.2936 27.5264 21.272C27.5142 21.2491 27.5024 21.2259 27.4908 21.2024C27.4786 21.1774 27.4667 21.152 27.4553 21.1264C27.443 21.0988 27.431 21.071 27.4196 21.0427C27.4071 21.0114 27.3954 20.9795 27.3841 20.9472C27.3715 20.9115 27.3596 20.8754 27.3485 20.8386C27.3356 20.7959 27.3237 20.7525 27.3129 20.7084C27.2994 20.6535 27.2876 20.5974 27.2773 20.5403C27.262 20.4557 27.25 20.3687 27.2417 20.2793C27.2321 20.1761 27.2272 20.0698 27.2272 19.9604C27.2272 19.851 27.2321 19.7446 27.2417 19.6413C27.25 19.5519 27.262 19.4649 27.2773 19.3802C27.2876 19.3231 27.2994 19.267 27.3129 19.212C27.3237 19.1679 27.3356 19.1245 27.3485 19.0818C27.3596 19.045 27.3715 19.0088 27.3841 18.9731C27.3954 18.9409 27.4071 18.9089 27.4196 18.8776C27.431 18.8493 27.443 18.8214 27.4553 18.7938C27.4667 18.7682 27.4786 18.7428 27.4908 18.7178C27.5024 18.6943 27.5142 18.6711 27.5264 18.6481C27.538 18.6265 27.5498 18.6051 27.562 18.584C27.5736 18.5639 27.5855 18.5441 27.5976 18.5245C27.6092 18.5058 27.6211 18.4874 27.6332 18.4691C27.6448 18.4516 27.6567 18.4344 27.6688 18.4173C27.6804 18.4008 27.6923 18.3846 27.7044 18.3686C27.716 18.353 27.728 18.3377 27.74 18.3226C27.7517 18.3079 27.7636 18.2934 27.7756 18.2791C27.7873 18.2651 27.7991 18.2514 27.8112 18.2377C27.8229 18.2245 27.8347 18.2113 27.8468 18.1984C27.8585 18.1858 27.8703 18.1731 27.8824 18.1608C27.894 18.1489 27.906 18.1372 27.918 18.1255C27.9297 18.1141 27.9416 18.1028 27.9535 18.0916C27.9653 18.0807 27.9771 18.0698 27.9892 18.0591C28.0009 18.0486 28.0127 18.0381 28.0247 18.0278C28.0364 18.0179 28.0484 18.0081 28.0603 17.9984C28.0721 17.9888 28.084 17.9793 28.0959 17.9699C28.1077 17.9607 28.1195 17.9514 28.1315 17.9424C28.1432 17.9336 28.1552 17.9251 28.1671 17.9165C28.1789 17.908 28.1908 17.8997 28.2027 17.8914C28.2145 17.8832 28.2263 17.875 28.2383 17.867C28.25 17.8592 28.262 17.8517 28.2739 17.8441C28.2857 17.8366 28.2975 17.8291 28.3095 17.8218C28.3213 17.8146 28.3331 17.8074 28.3451 17.8004C28.3568 17.7934 28.3688 17.7867 28.3807 17.78C28.3925 17.7733 28.4043 17.7665 28.4163 17.76C28.428 17.7536 28.44 17.7474 28.4519 17.7412C28.4637 17.735 28.4755 17.7289 28.4875 17.7229C28.4992 17.717 28.5111 17.7111 28.5231 17.7053C28.5348 17.6996 28.5467 17.6941 28.5586 17.6886C28.5705 17.6831 28.5823 17.6775 28.5942 17.6722C28.606 17.6669 28.6179 17.6619 28.6298 17.6568C28.6417 17.6517 28.6534 17.6466 28.6654 17.6416C28.6772 17.6368 28.6891 17.6322 28.701 17.6275C28.7129 17.6228 28.7247 17.6181 28.7366 17.6135C28.7484 17.6091 28.7603 17.6048 28.7722 17.6005C28.7841 17.5962 28.7959 17.5918 28.8078 17.5876C28.8196 17.5835 28.8315 17.5796 28.8434 17.5756C28.8552 17.5716 28.8671 17.5677 28.879 17.5638C28.8908 17.5601 28.9027 17.5564 28.9146 17.5527C28.9264 17.5491 28.9382 17.5455 28.9502 17.542L28.9858 17.5319C28.9976 17.5286 29.0094 17.5252 29.0214 17.522C29.0331 17.5189 29.0451 17.5158 29.057 17.5128C29.0688 17.5098 29.0806 17.5067 29.0925 17.5038L29.1282 17.4955C29.14 17.4928 29.1518 17.49 29.1637 17.4873C29.1755 17.4847 29.1875 17.4823 29.1993 17.4798C29.2112 17.4774 29.223 17.4748 29.2349 17.4724C29.2467 17.4701 29.2587 17.468 29.2705 17.4658C29.2824 17.4636 29.2941 17.4612 29.3061 17.4591C29.3179 17.457 29.3298 17.4552 29.3417 17.4532C29.3535 17.4512 29.3654 17.4492 29.3773 17.4473L29.4129 17.4421L29.4485 17.437L29.4841 17.4323L29.5197 17.428L29.5553 17.4239L29.5908 17.4203C29.6027 17.4191 29.6145 17.4178 29.6265 17.4167C29.6382 17.4156 29.6502 17.4148 29.662 17.4138L29.6976 17.411L29.7333 17.4086L29.7688 17.4064L29.8044 17.4045C29.8162 17.4039 29.8282 17.4035 29.84 17.403C29.8519 17.4025 29.8637 17.4019 29.8756 17.4016L29.9112 17.4007L29.9468 17.3999L29.9824 17.3994L30.018 17.3992C30.0299 17.3992 30.0416 17.3991 30.0536 17.3991L30.0892 17.3996L30.1247 17.4001L30.1604 17.4009L30.1959 17.402L30.2315 17.4032L30.2671 17.4048L30.3027 17.4066L30.3383 17.4085L30.3739 17.4109L30.4095 17.4133L30.4235 17.4142L30.4451 17.4159L30.4807 17.4188L30.5163 17.4218L30.5519 17.4251L30.5875 17.4285L30.6231 17.4321L30.6587 17.4359L30.6943 17.4398L30.7298 17.444L30.7654 17.4484L30.801 17.4529L30.8366 17.4576L30.8722 17.4626L30.9078 17.4676L30.9434 17.4729L30.979 17.4784L31.0146 17.4841L31.0502 17.49L31.0858 17.4961L31.1214 17.5023L31.157 17.5088L31.1926 17.5154L31.2282 17.5223L31.2637 17.5294L31.2994 17.5366L31.3349 17.5441L31.3705 17.5517L31.4061 17.5596L31.4417 17.5676L31.4773 17.5759L31.5129 17.5844L31.5485 17.5931L31.5841 17.6019L31.6197 17.611L31.6553 17.6203L31.6909 17.6297L31.7265 17.6394L31.762 17.6494L31.7977 17.6594L31.8332 17.6698L31.8688 17.6803L31.9044 17.691L31.94 17.7019L31.9756 17.7131L32.0112 17.7244L32.0468 17.736L32.0824 17.7477L32.118 17.7597L32.1536 17.7719L32.1892 17.7842L32.2248 17.7969L32.2604 17.8096L32.2959 17.8226L32.3316 17.8358L32.3671 17.8493L32.4027 17.8629L32.4383 17.8767L32.4739 17.8907L32.5095 17.9049L32.5451 17.9193L32.5807 17.934L32.6163 17.9488L32.6519 17.9638L32.6875 17.979L32.7231 17.9944L32.7587 18.01L32.7943 18.0258L32.8299 18.0418L32.8655 18.0579L32.901 18.0743L32.9366 18.0908L32.9722 18.1075L33.0078 18.1244L33.0434 18.1414L33.079 18.1586L33.1146 18.176L33.1502 18.1936L33.1858 18.2113L33.2212 18.2291V16.6684L33.1858 16.6597L33.1502 16.6512L33.1146 16.6427L33.079 16.6344L33.0434 16.6262L33.0078 16.618L32.9722 16.61L32.9366 16.602L32.901 16.5942L32.8655 16.5864L32.8299 16.5787L32.7943 16.5711L32.7587 16.5635L32.7231 16.556L32.6875 16.5486L32.6519 16.5412L32.6163 16.534L32.5807 16.5268L32.5451 16.5196L32.5095 16.5126L32.4739 16.5056L32.4383 16.4987L32.4027 16.4918L32.3671 16.485L32.3316 16.4783L32.2959 16.4717L32.2604 16.4651L32.2248 16.4586L32.1892 16.4522L32.1536 16.4458L32.118 16.4396L32.0824 16.4333L32.0468 16.4272L32.0112 16.4211L31.9756 16.4151L31.94 16.4092L31.9044 16.4033L31.8688 16.3975L31.8332 16.3918L31.7977 16.3862L31.762 16.3806L31.7265 16.3751L31.6909 16.3697L31.6553 16.3644L31.6197 16.3591L31.5841 16.3539L31.5485 16.3488L31.5129 16.3438L31.4773 16.3389L31.4417 16.334L31.4061 16.3293L31.3705 16.3245L31.3349 16.32L31.2994 16.3154L31.2637 16.311L31.2282 16.3066L31.1926 16.3024L31.157 16.2982L31.1214 16.2941L31.0858 16.2901L31.0502 16.2862L31.0146 16.2824L30.979 16.2787L30.9434 16.2751L30.9078 16.2716L30.8722 16.2681L30.8366 16.2648L30.801 16.2616L30.7654 16.2585L30.7298 16.2555L30.6943 16.2526L30.6587 16.2498L30.6231 16.2472L30.5875 16.2446L30.5519 16.2422L30.5163 16.2398L30.4807 16.2376L30.4451 16.2355L30.4095 16.2336L30.3739 16.2317L30.3383 16.23L30.3201 16.2291L30.3027 16.2284L30.2671 16.2269L30.2315 16.2254L30.1959 16.224L30.1604 16.2227L30.1247 16.2215L30.0892 16.2203L30.0536 16.2192L30.018 16.2182L29.9824 16.2172L29.9468 16.2163L29.9112 16.2156L29.8756 16.2149L29.84 16.2141L29.8044 16.2137L29.7688 16.2132L29.7333 16.2127L29.6976 16.2124L29.662 16.2123L29.6265 16.2121L29.5908 16.212L29.5553 16.212L29.5197 16.2121L29.4841 16.2122L29.4485 16.2125L29.4129 16.2129L29.3773 16.2132L29.3417 16.2139L29.3061 16.2144L29.2705 16.2151L29.2349 16.2159L29.1993 16.2168L29.1637 16.2177L29.1282 16.2189L29.0925 16.22L29.057 16.2212L29.0214 16.2227L28.9858 16.2241L28.9502 16.2256L28.9146 16.2273L28.879 16.2291L28.8434 16.2308L28.8078 16.2329L28.7722 16.2349L28.7366 16.237L28.701 16.2394L28.6654 16.2417L28.6298 16.2441L28.5942 16.2469L28.5586 16.2495L28.5231 16.2523L28.4875 16.2553L28.4519 16.2583L28.4163 16.2615L28.3807 16.2648L28.3451 16.2681L28.3095 16.2717L28.2739 16.2753L28.2383 16.279L28.2027 16.283L28.1671 16.287L28.1315 16.291L28.0959 16.2954L28.0603 16.2997L28.0247 16.3043L27.9892 16.309L27.9535 16.3137L27.918 16.3187L27.8824 16.3237L27.8468 16.3289L27.8112 16.3344L27.7756 16.3398L27.74 16.3455L27.7044 16.3513L27.6688 16.3572L27.6332 16.3633L27.5976 16.3695L27.562 16.376L27.5264 16.3826L27.4908 16.3893L27.4553 16.3962L27.4196 16.4032L27.3841 16.4105L27.3485 16.4179L27.3129 16.4255L27.2773 16.4332L27.2417 16.4411L27.2061 16.4493L27.1705 16.4575L27.1349 16.4661L27.0993 16.4747L27.0637 16.4837L27.0281 16.4927L26.9925 16.502L26.957 16.5115L26.9213 16.5212L26.8858 16.5312L26.8502 16.5412L26.8146 16.5517L26.779 16.5621L26.7434 16.573L26.7078 16.5839L26.6722 16.5953C26.6603 16.5991 26.6484 16.6029 26.6366 16.6067L26.601 16.6186C26.5892 16.6226 26.5772 16.6264 26.5654 16.6305L26.5298 16.6429L26.4942 16.6553C26.4823 16.6595 26.4705 16.6639 26.4586 16.6682C26.4468 16.6725 26.4348 16.6768 26.4231 16.6812L26.3874 16.6946C26.3756 16.6991 26.3636 16.7036 26.3519 16.7081L26.3163 16.7222L26.2807 16.7363L26.2451 16.7509L26.2095 16.7657L26.1739 16.7809L26.1383 16.7964L26.1027 16.8122L26.0671 16.8284L26.0316 16.8448C26.0196 16.8504 26.0078 16.8561 25.9959 16.8618L25.9604 16.879L25.9248 16.8967L25.8892 16.9147C25.8773 16.9208 25.8653 16.9269 25.8536 16.933C25.8416 16.9393 25.8298 16.9456 25.818 16.952L25.7824 16.9712L25.7468 16.9909C25.7348 16.9976 25.723 17.0043 25.7112 17.0111C25.6993 17.0179 25.6874 17.0247 25.6756 17.0316C25.6637 17.0386 25.6519 17.0457 25.64 17.0528C25.6281 17.0599 25.6162 17.0672 25.6044 17.0744C25.5925 17.0817 25.5806 17.089 25.5688 17.0964C25.5569 17.1039 25.545 17.1115 25.5332 17.1191L25.4977 17.1423C25.4857 17.1502 25.4738 17.158 25.462 17.166L25.4265 17.1903C25.4145 17.1986 25.4027 17.207 25.3909 17.2153C25.3789 17.2238 25.367 17.2323 25.3553 17.2409C25.3434 17.2496 25.3314 17.2582 25.3197 17.267C25.3077 17.2759 25.2959 17.285 25.2841 17.294C25.2721 17.3032 25.2603 17.3124 25.2485 17.3217C25.2365 17.331 25.2247 17.3405 25.2129 17.35V17.35Z" fill="#E10238"/>
</svg>
