<svg width="120" height="72" viewBox="0 0 120 72" fill="none" xmlns="http://www.w3.org/2000/svg">
<path fill-rule="evenodd" clip-rule="evenodd" d="M40 35.9972C40 24.9531 48.9531 16 59.9972 16C71.0406 16 79.9951 24.9538 79.9951 35.9972C79.9951 47.0406 71.0413 55.9951 59.9972 55.9951C48.9531 55.9951 40 47.0413 40 35.9972ZM42.3076 35.9972C42.3076 45.7707 50.2293 53.6875 59.9972 53.6875C69.7707 53.6875 77.6875 45.7651 77.6875 35.9972C77.6875 26.2293 69.7651 18.3076 59.9972 18.3076C50.2293 18.3076 42.3076 26.2236 42.3076 35.9972Z" fill="#17479E"/>
<path fill-rule="evenodd" clip-rule="evenodd" d="M58.2011 32.4086L57.1387 31.2382L54.8678 32.75V35.0576L57.2234 33.4872L59.7391 36.2541L58.2011 37.792L57.1387 36.6188L54.8699 38.1313V39.3306H58.9722V41.8908H54.8699V44.7126H58.9722V47.2812H48.204V44.7169H52.3063V41.895H48.204V39.3313H52.307V37.5366L51.9225 37.9211L50.5115 36.5102L48.7161 38.0516L47.4343 36.2569L50.2562 33.435L52.307 35.0308V32.1532L51.9225 32.5377L50.5115 31.1267L48.7154 32.6668L47.4336 30.8721L50.2555 28.0502L52.3063 29.6452V24.204H58.9701V26.7676H54.8678V29.6735L57.2234 28.1031L59.7391 30.8699L58.2011 32.4086ZM60.7669 24.204V32.1553H70.7655V24.204H60.7669ZM68.2018 29.5881H63.3306V26.7662H68.2018V29.5881ZM63.5888 36.7669H60.7669V33.9465H70.7655V42.1511H63.5867V44.7126H70.7655V47.2784H60.5101V39.3306H63.5888V36.7669ZM65.8943 36.7669H68.4579V39.3306H65.8943V36.7669Z" fill="#ED1C24"/>
</svg>
