<svg width="16" height="16" viewBox="0 0 16 16" fill="none" xmlns="http://www.w3.org/2000/svg">
<path fill-rule="evenodd" clip-rule="evenodd" d="M11.595 0C11.815 0 12.028 0.073 12.2 0.206L12.3 0.293L15.708 3.707C15.8632 3.86256 15.9627 4.06506 15.991 4.283L16 4.414V10.304C16 11.354 15.18 12.222 14.152 12.3L14.004 12.304H10.72L10.721 13.304C10.721 14.354 9.901 15.223 8.87 15.3L8.721 15.305H2C0.95 15.305 0.082 14.485 0.005 13.454L0 13.304V5C0 3.95 0.82 3.082 1.851 3.006L2 3L5.299 2.999L5.3 2C5.3 0.95 6.117 0.082 7.147 0.006L7.297 0H11.595ZM5.25 4.5H2C1.75966 4.50306 1.55435 4.67415 1.508 4.91L1.5 5V13.305C1.5 13.547 1.68 13.754 1.911 13.797L2 13.805H8.721C8.962 13.805 9.169 13.625 9.212 13.394L9.221 13.304V8.75H6.001C5.62583 8.75048 5.30802 8.47368 5.257 8.102L5.251 8L5.25 4.5ZM7.296 1.5H10.539L10.54 5L10.547 5.102C10.5975 5.4726 10.914 5.74893 11.288 5.749H14.502L14.503 10.304L14.494 10.393C14.451 10.624 14.244 10.804 14.004 10.804H10.72L10.721 7.413L10.712 7.283C10.6835 7.06491 10.5837 6.86238 10.428 6.707L7.014 3.293L6.914 3.206C6.877 3.178 6.838 3.151 6.797 3.128V2L6.805 1.911L6.829 1.827C6.90261 1.63233 7.0879 1.50259 7.296 1.5ZM6.75 5.15V7.25H8.85L6.75 5.15ZM12.035 4.249V2.149L14.131 4.249H12.035Z" fill="#00AFB8"/>
</svg>
