<svg width="24" height="24" viewBox="0 0 24 24" fill="none" xmlns="http://www.w3.org/2000/svg">
<path d="M5.06877 10.9934L5.07363 11.0038C5.08074 11.0186 5.08835 11.0332 5.09648 11.0476C5.10115 11.0557 5.10588 11.0637 5.11076 11.0716C5.12961 11.1021 5.15103 11.1316 5.17491 11.1594L5.15079 11.1297C5.15759 11.1386 5.16459 11.1473 5.17177 11.1558C5.17869 11.1639 5.18251 11.1682 5.18637 11.1725C5.19564 11.1828 5.20546 11.193 5.21557 11.2029C5.2247 11.2119 5.23406 11.2206 5.24358 11.2289C5.24864 11.2333 5.25384 11.2377 5.25909 11.242C5.27015 11.2511 5.28136 11.2597 5.29276 11.2679C5.29887 11.2722 5.30494 11.2764 5.31108 11.2805C5.32141 11.2874 5.33203 11.294 5.34278 11.3003C5.35047 11.3047 5.35835 11.3091 5.36631 11.3133C5.37654 11.3187 5.38674 11.3237 5.39704 11.3284C5.40633 11.3326 5.41586 11.3367 5.4255 11.3405C5.43427 11.3439 5.44281 11.3471 5.4514 11.35C5.46225 11.3538 5.47364 11.3574 5.48515 11.3606C5.49405 11.363 5.5027 11.3652 5.51137 11.3672C5.52389 11.3702 5.53662 11.3727 5.54947 11.3748C5.55618 11.3758 5.56301 11.3768 5.56984 11.3777C5.59446 11.3808 5.61934 11.3824 5.64455 11.3824L5.60228 11.3809C5.6143 11.3818 5.62634 11.3823 5.63838 11.3824L5.64455 11.3824H9.51512C9.8714 11.3824 10.1602 11.0649 10.1602 10.6732C10.1602 10.2816 9.8714 9.96405 9.51512 9.96405L7.27031 9.964L9.08763 8.08247C10.6787 6.33222 13.113 5.92133 15.1035 7.0505L15.2299 7.12467C17.2428 8.34488 18.2791 10.8816 17.7713 13.3463C17.2635 15.811 15.3342 17.6093 13.0394 17.7569C10.7446 17.9045 8.63772 16.3657 7.87199 13.983C7.75331 13.6137 7.38477 13.4201 7.04885 13.5505C6.71292 13.681 6.5368 14.0862 6.65549 14.4555C7.61265 17.4339 10.2463 19.3574 13.1147 19.1729C15.9832 18.9884 18.3949 16.7405 19.0296 13.6596C19.6643 10.5788 18.3691 7.40785 15.8529 5.88258C13.3367 4.35731 10.2062 4.84547 8.18909 7.06484L6.28974 9.031L6.28964 6.41807C6.28964 6.04943 6.0338 5.74648 5.70667 5.71212L5.64455 5.70887C5.28827 5.70887 4.99945 6.02639 4.99945 6.41807V10.6732C4.99945 10.6806 4.99956 10.688 4.99976 10.6954C5.00007 10.7063 5.0006 10.7172 5.00136 10.728C5.00228 10.7415 5.00359 10.7552 5.00525 10.7688C5.00642 10.778 5.00771 10.7872 5.00916 10.7963C5.01102 10.8082 5.0132 10.8201 5.01566 10.8319C5.01794 10.8427 5.02043 10.8535 5.02316 10.8643C5.02587 10.8751 5.0288 10.8856 5.03195 10.8961C5.03518 10.9068 5.03869 10.9176 5.04245 10.9283C5.04633 10.9394 5.05047 10.9504 5.05483 10.9612C5.05783 10.9686 5.0611 10.9764 5.06451 10.984L5.06877 10.9934Z" fill="#595959"/>
<path d="M5.64455 11.3824C5.61934 11.3824 5.59446 11.3808 5.56984 11.3777C5.56301 11.3768 5.55618 11.3758 5.54947 11.3748C5.53662 11.3727 5.52389 11.3702 5.51137 11.3672C5.5027 11.3652 5.49405 11.363 5.48515 11.3606C5.47364 11.3574 5.46225 11.3538 5.4514 11.35C5.44281 11.3471 5.43427 11.3439 5.4255 11.3405C5.41586 11.3367 5.40633 11.3326 5.39704 11.3284C5.38674 11.3237 5.37654 11.3187 5.36631 11.3133C5.35835 11.3091 5.35047 11.3047 5.34278 11.3003C5.33203 11.294 5.32141 11.2874 5.31108 11.2805C5.30494 11.2764 5.29887 11.2722 5.29276 11.2679C5.28136 11.2597 5.27015 11.2511 5.25909 11.242C5.25384 11.2377 5.24864 11.2333 5.24358 11.2289C5.23406 11.2206 5.2247 11.2119 5.21557 11.2029C5.20546 11.193 5.19564 11.1828 5.18637 11.1725C5.18251 11.1682 5.17869 11.1639 5.17177 11.1558C5.16459 11.1473 5.15759 11.1386 5.15079 11.1297L5.17491 11.1594C5.15103 11.1316 5.12961 11.1021 5.11076 11.0716C5.10588 11.0637 5.10115 11.0557 5.09648 11.0476C5.08835 11.0332 5.08074 11.0186 5.07363 11.0038L5.06877 10.9934L5.06451 10.984C5.06111 10.9764 5.05783 10.9686 5.05483 10.9612C5.05047 10.9504 5.04633 10.9394 5.04245 10.9283C5.03869 10.9176 5.03518 10.9068 5.03195 10.8961C5.0288 10.8856 5.02587 10.8751 5.02316 10.8643C5.02043 10.8535 5.01794 10.8427 5.01566 10.8319C5.0132 10.8201 5.01102 10.8082 5.00916 10.7963C5.00771 10.7872 5.00642 10.778 5.00526 10.7688C5.00359 10.7552 5.00228 10.7415 5.00135 10.728C5.0006 10.7172 5.00007 10.7063 4.99976 10.6954C4.99956 10.688 4.99945 10.6806 4.99945 10.6732V6.41807C4.99945 6.02639 5.28827 5.70887 5.64455 5.70887L5.70667 5.71212C6.0338 5.74648 6.28964 6.04943 6.28964 6.41807L6.28974 9.031L8.18909 7.06484C10.2062 4.84547 13.3367 4.35731 15.8529 5.88258C18.3691 7.40785 19.6643 10.5788 19.0296 13.6596C18.3949 16.7405 15.9832 18.9884 13.1147 19.1729C10.2463 19.3574 7.61265 17.4339 6.65549 14.4555C6.5368 14.0862 6.71292 13.681 7.04885 13.5505C7.38477 13.4201 7.75331 13.6137 7.87199 13.983C8.63772 16.3657 10.7446 17.9045 13.0394 17.7569C15.3342 17.6093 17.2635 15.811 17.7713 13.3463C18.2791 10.8816 17.2428 8.34488 15.2299 7.12467L15.1035 7.0505C13.113 5.92133 10.6787 6.33222 9.08763 8.08247L7.27031 9.964L9.51512 9.96405C9.8714 9.96405 10.1602 10.2816 10.1602 10.6732C10.1602 11.0649 9.8714 11.3824 9.51512 11.3824H5.64455ZM5.64455 11.3824L5.60228 11.3809C5.6143 11.3818 5.62634 11.3823 5.63838 11.3824L5.64455 11.3824Z" stroke="#595959" stroke-width="0.3"/>
</svg>
